<svg width="32" height="18" viewBox="0 0 32 18" fill="none" xmlns="http://www.w3.org/2000/svg">
<path d="M9.29882 17.5969C9.51216 17.4965 9.78823 17.2957 9.90117 17.1326C10.1271 16.7938 10.1647 16.0032 9.96392 15.6016C9.88863 15.451 8.74667 14.2338 7.42902 12.9161L5.01961 10.4941L17.8573 10.4941C31.611 10.4941 31.1718 10.5192 31.749 9.86669C31.9247 9.67846 32 9.41493 32 8.98826C32 8.56159 31.9247 8.29807 31.749 8.10983C31.1718 7.45728 31.611 7.48238 17.8573 7.48238L5.01961 7.48238L7.42902 5.07297C8.74667 3.74277 9.88863 2.52552 9.96392 2.37493C10.1898 1.93571 10.1271 1.15767 9.83843 0.79375C9.49961 0.341986 8.73412 0.116103 8.25726 0.316887C8.05647 0.392182 6.12392 2.23689 3.95294 4.40787L-7.09667e-07 8.36081L-7.64521e-07 8.98826L-8.19374e-07 9.61571L3.89019 13.5185C6.02353 15.6518 7.93098 17.4965 8.11922 17.5969C8.53333 17.8102 8.79686 17.8102 9.29882 17.5969Z" fill="#7E7C7C"/>
</svg>
