<svg width="77" height="77" viewBox="0 0 77 77" fill="none" xmlns="http://www.w3.org/2000/svg">
<g clip-path="url(#clip0_153_3404)">
<path d="M35.2666 0.16552C35.041 0.285835 32.5596 3.57939 31.8527 4.70732C31.7775 4.82763 30.9654 4.61708 29.266 4.07568C26.9951 3.33876 26.7395 3.27861 26.3184 3.45908C25.7469 3.6997 25.807 3.59443 24.6641 6.72255L23.7166 9.32431H20.7389C19.1146 9.32431 17.6559 9.36943 17.5205 9.41454C17.4002 9.4747 17.1896 9.70029 17.0693 9.92587C16.8738 10.3018 16.9039 10.7229 17.2949 13.8511C17.5355 15.7761 17.7311 17.3702 17.701 17.3853C17.6859 17.4003 16.4979 17.656 15.0691 17.9567C13.6254 18.2575 12.332 18.5583 12.1967 18.6485C12.0463 18.7237 11.8357 18.9944 11.7305 19.2501C11.55 19.6862 11.5801 19.8065 12.1215 20.8743C12.4523 21.506 13.2795 22.8895 13.9563 23.9423C15.1744 25.8071 15.2045 25.8522 14.9939 26.2733C14.4225 27.3712 14.0766 28.9503 14.0766 30.4542C14.0916 32.6649 14.6781 34.3794 16.167 36.4698C17.1746 37.8835 17.8062 38.4099 18.4229 38.3948C19.5057 38.3647 19.7764 37.7632 19.5357 36.0036C19.3402 34.6651 19.4756 33.1462 19.8967 31.7325L20.0922 31.0558L20.5133 32.3341C22.2879 37.8083 26.0176 41.8989 31.176 44.0495C32.2287 44.4856 32.4092 44.5157 32.8754 44.3653C34.0184 43.9894 33.9883 43.087 32.7701 41.4628C29.6119 37.2368 28.0328 30.7399 28.7848 25.1153C29.266 21.6263 29.6721 20.6036 30.6045 20.6036C31.2361 20.6036 31.7926 21.2202 31.6873 21.8067C31.6422 22.0173 31.4768 22.8595 31.3113 23.6866C30.8902 25.6868 30.7549 28.2886 30.9654 30.1534C31.1609 31.9581 31.7324 34.5899 31.9129 34.5899C32.0332 34.5899 33.3566 31.913 33.9281 30.5444C34.0785 30.1835 34.1086 30.1985 34.7402 31.146C36.1088 33.1913 39.2219 35.7479 41.2521 36.4999C41.8988 36.7405 42.0041 36.7405 42.3801 36.545C43.1922 36.0788 43.2523 35.7179 42.8463 34.0485C42.5455 32.8153 42.4854 32.1837 42.4854 30.379C42.4854 27.4313 42.9516 25.7169 44.3352 23.5362C45.6135 21.521 46.4256 20.9645 47.1926 21.6112C47.8092 22.1376 47.7641 22.5587 46.9068 23.6866C46.0346 24.8597 45.3428 26.2282 45.042 27.3712C44.8465 28.1081 44.8465 28.1231 45.3729 28.9804C45.6586 29.4616 46.3354 30.3038 46.8918 30.8603L47.8844 31.8829L47.2227 32.5747C46.8467 32.9507 45.9143 33.7628 45.1473 34.3944L43.7486 35.5224L43.7938 36.1991C43.8238 36.7556 43.9291 36.9511 44.26 37.2067C44.651 37.4925 44.8916 37.5226 46.8166 37.5226C49.2229 37.5075 50.2154 37.312 52.0051 36.4698C53.2383 35.8833 54.4865 34.7854 55.3588 33.5222C56.1408 32.3642 56.7123 32.1837 57.374 32.8604C57.9154 33.3868 57.8402 33.8079 57.0131 34.981C55.6596 36.906 53.7797 38.3347 51.599 39.1017C50.9674 39.3122 50.1252 39.7483 49.7041 40.0491C48.6664 40.8161 46.7564 41.7485 45.4932 42.1095C44.8766 42.2899 44.3352 42.5456 44.1848 42.7261C43.8539 43.1171 43.8389 43.8841 44.1396 44.3202C44.4855 44.8015 47.4783 45.7188 48.7717 45.7188C49.4785 45.7188 49.4785 45.8692 48.8168 47.2077C47.1324 50.6216 44.1697 53.3286 39.658 55.5845L38.0187 56.4116L36.4697 55.6597C34.3793 54.637 31.582 52.7421 30.2887 51.4788C28.4539 49.6892 27.1305 47.5536 26.3033 45.1173L25.8371 43.7036L24.1527 42.0944C23.2354 41.2222 22.2127 40.1243 21.8818 39.6581C21.551 39.1919 21.2502 38.8159 21.2051 38.8009C21.16 38.8009 20.9344 39.3724 20.7088 40.0491C20.4832 40.7409 20.002 41.929 19.626 42.696C19.25 43.463 18.9492 44.245 18.9492 44.4405C18.9492 44.636 19.1146 44.9819 19.3102 45.2075C19.8215 45.8091 20.423 45.7489 22.0172 44.9819C22.7391 44.636 23.3557 44.3653 23.3707 44.3954C23.4008 44.4255 23.5963 45.0421 23.8219 45.794C24.5437 48.1101 25.8221 50.381 27.4914 52.306L28.3186 53.2534L28.1381 54.1106C27.732 55.9604 26.6342 57.7351 25.2205 58.7878C24.7844 59.1187 21.3855 60.8331 17.4152 62.713C9.88066 66.3073 8.96328 66.8487 7.63984 68.488C6.13594 70.3679 5.41406 72.4433 5.41406 74.9247C5.41406 76.6692 5.60957 77.0001 6.61719 77.0001C7.54961 77.0001 7.76016 76.6843 7.88047 75.1052C8.07598 72.714 8.6625 71.2101 9.98594 69.8114C10.407 69.3603 11.0988 68.7737 11.5049 68.503C12.2268 68.0519 22.3781 63.1642 22.6037 63.1642C22.6639 63.1642 22.709 66.0366 22.709 69.5558C22.709 76.2933 22.7391 76.6542 23.3857 76.9099C23.8068 77.0603 53.3736 77.0151 53.6895 76.8497C54.2459 76.5489 54.291 75.9474 54.291 69.4655C54.291 65.9915 54.3512 63.1642 54.4113 63.1642C54.5166 63.1642 61.5549 66.5028 64.668 68.0218C65.2094 68.2925 66.0816 68.9091 66.6381 69.4354C68.2172 70.9243 68.909 72.5335 69.1195 75.1052C69.2398 76.6843 69.4504 77.0001 70.3828 77.0001C71.3904 77.0001 71.5859 76.6692 71.5859 74.9247C71.5859 72.4433 70.8641 70.3679 69.3602 68.488C68.0367 66.8337 67.1043 66.2923 59.5096 62.6829C51.8547 59.0435 51.2682 58.6825 50.1402 57.0433C49.3131 55.8401 48.877 54.622 48.7717 53.2835C48.6814 52.2007 48.6814 52.1856 49.268 51.4036C50.5012 49.7493 51.2832 48.3356 51.8697 46.6964L52.2006 45.779L53.3736 45.5384C55.6295 45.0722 57.5244 44.0946 59.0734 42.6208L60.0209 41.7034L59.9307 40.2897L59.8254 38.8761L61.9459 37.6128C63.1189 36.921 64.1416 36.2292 64.2168 36.0788C64.5627 35.4622 64.3521 34.8757 62.9234 32.304C62.1264 30.8753 61.4496 29.6571 61.4195 29.597C61.3895 29.5519 62.0812 29.0104 62.9686 28.4239C65.1342 26.9802 65.2695 26.8448 65.2695 26.138C65.2695 25.6267 65.0891 25.371 63.4348 23.446C62.4121 22.288 61.4646 21.1751 61.3293 20.9946C61.0736 20.6638 61.1037 20.6186 62.5023 18.7087C64.0814 16.5882 64.2619 16.2423 64.1266 15.7159C63.9912 15.1444 63.6152 14.9038 60.5623 13.3849L57.6748 11.9561L57.2086 9.17392C56.968 7.63994 56.6822 6.2413 56.577 6.07587C56.2311 5.44423 55.6596 5.41415 52.6367 5.94052C51.4336 6.15107 50.3057 6.33154 50.1402 6.36162C49.8545 6.40673 49.674 6.10595 48.5611 3.56435C47.8693 2.00029 47.1775 0.556534 47.0271 0.361031C46.8166 0.0752869 46.6061 9.15527e-05 46.1248 9.15527e-05C45.5232 9.15527e-05 45.3428 0.135445 42.8613 2.25595C41.4176 3.48915 40.1994 4.49677 40.1543 4.51181C40.1092 4.51181 39.3422 3.56435 38.4248 2.42138C36.5299 0.0151291 36.1389 -0.255569 35.2666 0.16552ZM44.7412 7.44443C45.2525 7.94072 45.2074 8.437 44.5908 9.17392C44.0193 9.86572 43.7938 10.4823 43.6734 11.8058C43.5682 12.9938 43.3727 13.4601 42.9215 13.6706C42.365 13.9112 42.1395 13.8811 41.7334 13.4601C41.4176 13.1593 41.3574 12.9487 41.3574 12.2269C41.3574 10.3921 42.1094 8.39189 43.117 7.50459C43.7336 6.97822 44.26 6.94814 44.7412 7.44443ZM35.4922 10.6327C37.9736 12.2569 39.3271 14.0165 39.5377 15.9265C39.658 16.9792 39.4775 18.7839 39.1918 19.4757C38.8008 20.4081 37.718 20.5585 37.2066 19.7614C36.9811 19.4306 36.9811 19.2802 37.1164 18.6335C37.3871 17.4755 37.342 15.8212 37.0111 15.1143C36.6803 14.3624 35.402 13.1894 33.9281 12.2419C32.6949 11.4749 32.3791 10.9936 32.6949 10.362C32.9055 9.92587 33.5221 9.61005 33.9131 9.71532C34.0785 9.77548 34.7854 10.1815 35.4922 10.6327ZM50.5613 11.129C51.1479 11.5802 51.1479 11.911 50.5914 13.0239C50.3057 13.5804 50.05 14.2571 50.0049 14.5429C49.9598 14.8136 49.8846 15.2798 49.8395 15.5806C49.6891 16.6183 48.7266 17.0394 48.0197 16.3626C47.749 16.1069 47.6738 15.8813 47.6738 15.2497C47.6738 13.7608 48.7416 11.2944 49.5236 10.9786C50.0199 10.7831 50.1553 10.7981 50.5613 11.129ZM28.0027 15.0392C28.4689 15.2046 29.1607 15.6257 29.5367 15.9565C30.3789 16.7085 30.4842 17.3702 29.8375 17.8815C29.2961 18.3177 29.1156 18.2876 28.108 17.6108C27.1004 16.9341 26.2131 16.7536 24.7693 16.9341C24.258 16.9942 23.7316 17.0394 23.6113 17.0093C23.2805 16.9642 22.709 16.2724 22.709 15.9415C22.709 15.4151 23.3406 14.8888 24.1377 14.7384C25.2506 14.5429 27.0553 14.6782 28.0027 15.0392ZM21.8518 21.5962C22.5135 21.8218 23.6113 22.7993 23.6113 23.1753C23.6113 23.2505 23.5061 23.5212 23.3857 23.7468C23.0098 24.4686 22.318 24.5739 21.6262 23.9874C21.1148 23.5513 20.6035 23.5212 19.7012 23.837C18.9643 24.0927 18.6184 24.0325 18.1973 23.5663C17.5506 22.8745 17.9717 22.0925 19.25 21.6563C20.2727 21.2954 20.9494 21.2804 21.8518 21.5962ZM58.5471 24.0776C59.1637 24.3935 59.5547 24.8597 59.5547 25.2657C59.5547 25.4913 59.4043 25.8071 59.2238 25.9726C58.923 26.2583 58.6975 26.2884 57.3289 26.2583C55.9754 26.2433 55.7498 26.1981 55.5543 25.9575C55.3287 25.6417 55.2836 25.1454 55.449 24.7394C55.6896 24.1077 57.75 23.6716 58.5471 24.0776ZM47.7941 58.2313C48.14 58.7577 48.6213 59.3743 48.8469 59.6149C49.2529 59.9909 49.283 60.0661 49.1627 60.7128C48.7867 62.6829 46.591 64.6229 43.5682 65.6606C38.7406 67.2999 32.71 66.3675 29.5818 63.48C28.5592 62.5325 28.0178 61.6753 27.8373 60.7128C27.717 60.0661 27.7471 59.9909 28.1531 59.5999C28.8449 58.9382 29.642 57.6448 30.1232 56.4116C30.3639 55.78 30.5744 55.2536 30.5895 55.2386C30.6195 55.2085 31.191 55.5694 31.8979 56.0356C32.5896 56.5019 34.1086 57.344 35.2666 57.9306C37.1916 58.878 37.4322 58.9683 38.124 58.9231C39.3572 58.8179 43.2523 56.7876 45.4029 55.1333L46.2301 54.4866L46.6963 55.8853C46.952 56.6372 47.4482 57.705 47.7941 58.2313Z" fill="#333333"/>
<path d="M36.4698 44.1396C35.9885 44.6059 35.9885 45.2676 36.4547 45.824C36.7856 46.215 36.9059 46.2451 37.8985 46.2451C38.8911 46.2451 39.0114 46.215 39.3422 45.824C39.8084 45.2676 39.8084 44.6059 39.3272 44.1396C39.0114 43.8088 38.8309 43.7637 37.8985 43.7637C36.9661 43.7637 36.7856 43.8088 36.4698 44.1396Z" fill="#333333"/>
<path d="M34.9057 48.3656C34.7252 48.5912 34.5898 48.9521 34.5898 49.1777C34.5898 49.4033 34.7252 49.7643 34.9057 49.9898L35.2064 50.3809H37.6729H40.1393L40.44 49.9898C40.6205 49.7643 40.7559 49.4033 40.7559 49.1777C40.7559 48.9521 40.6205 48.5912 40.44 48.3656L40.1393 47.9746H37.6729H35.2064L34.9057 48.3656Z" fill="#333333"/>
</g>
<defs>
<clipPath id="clip0_153_3404">
<rect width="77" height="77" fill="white"/>
</clipPath>
</defs>
</svg>
