<svg width="34" height="35" viewBox="0 0 34 35" fill="none" xmlns="http://www.w3.org/2000/svg">
<path d="M15.1341 1.01999C14.0145 1.1666 12.4551 1.53979 11.4022 1.89965C8.85653 2.80596 6.99059 3.99216 4.99138 5.99137C2.48569 8.49706 1.00627 11.216 0.259898 14.668C-0.0866327 16.254 -0.0866327 19.746 0.259898 21.332C1.00627 24.784 2.48569 27.5029 4.99138 30.0086C7.49706 32.5143 10.216 33.9937 13.668 34.7401C15.254 35.0866 18.746 35.0866 20.332 34.7401C23.784 33.9937 26.5029 32.5143 29.0086 30.0086C31.5143 27.5029 32.9937 24.784 33.7401 21.332C34.0866 19.746 34.0866 16.254 33.7401 14.668C32.9937 11.216 31.5143 8.49706 29.0086 5.99137C26.5429 3.52567 23.9573 2.08624 20.5986 1.32654C19.4924 1.0733 16.187 0.886711 15.1341 1.01999ZM19.1458 5.13838C23.9306 5.97805 27.7958 9.25676 29.3552 13.8016C31.6742 20.599 28.009 28.0227 21.1984 30.3552C16.5602 31.9279 11.4422 30.7683 7.93689 27.3297C6.29753 25.7303 5.33791 24.2242 4.64485 22.1984C3.03214 17.4802 4.245 12.3489 7.79028 8.79028C10.8158 5.77813 15.0274 4.41866 19.1458 5.13838Z" fill="#4C4C4C"/>
<path d="M15.4674 7.01752C10.9625 7.75057 7.4839 10.8827 6.25771 15.3343C5.92451 16.5471 5.92451 19.4527 6.25771 20.6655C6.81749 22.6781 7.8171 24.4374 9.1899 25.7968C10.5627 27.1696 12.2287 28.1426 14.148 28.689C15.5341 29.0889 18.333 29.1155 19.6658 28.7423C23.7309 27.6228 26.6231 24.7306 27.7426 20.6655C28.0758 19.4527 28.0758 16.5471 27.7426 15.3343C26.6231 11.2958 23.7175 8.36366 19.7324 7.28409C18.9327 7.05751 16.2271 6.89757 15.4674 7.01752ZM17.5333 11.7757C17.6532 11.869 18.3596 12.722 19.106 13.6949L20.4788 15.4542L21.1052 15.2676C23.6109 14.5479 23.7842 14.5213 24.1574 14.6945C24.8904 15.041 24.8637 15.2943 23.7975 19.0262C23.1844 21.1853 22.7179 22.5714 22.558 22.758L22.2914 23.0646H16.9735C12.0954 23.0646 11.6556 23.0512 11.4423 22.8247C11.2957 22.6914 10.7893 21.1187 10.2162 19.0928C9.13659 15.2943 9.10993 15.041 9.84297 14.6945C10.2162 14.5213 10.3894 14.5479 12.8951 15.2676L13.5215 15.4542L14.8943 13.6949C15.6407 12.722 16.3471 11.869 16.467 11.7757C16.7203 11.5624 17.2801 11.5624 17.5333 11.7757Z" fill="#4C4C4C"/>
<path d="M15.8008 15.7604C14.2947 17.7329 14.3347 17.7063 12.9619 17.3464C12.3622 17.1865 11.829 17.0665 11.789 17.0665C11.7357 17.0665 11.9623 17.9462 12.2689 19.0257L12.8286 20.9983L16.9737 21.0383L21.1187 21.0649L21.3986 20.1053C21.5586 19.5722 21.8251 18.6659 21.9984 18.0928C22.1583 17.533 22.2649 17.0665 22.2116 17.0665C22.1716 17.0665 21.6385 17.1865 21.0388 17.3464C19.666 17.7063 19.7059 17.7329 18.1999 15.7604C17.5734 14.9473 17.0403 14.2809 17.0003 14.2809C16.9604 14.2809 16.4272 14.9473 15.8008 15.7604Z" fill="#4C4C4C"/>
</svg>
