<svg width="34" height="34" viewBox="0 0 34 34" fill="none" xmlns="http://www.w3.org/2000/svg">
<path d="M15.037 0.0953941C11.8428 0.488034 8.40454 1.98431 6.06992 3.97935L5.71973 4.2871L9.17921 7.74657L12.6387 11.2061L13.0419 10.9726C13.7529 10.5375 14.5913 10.1873 15.3341 10.0175L16.0451 9.84773V4.93442V0.0211105L15.7055 0.031723C15.5145 0.0423346 15.2174 0.0741701 15.037 0.0953941Z" fill="#B3B3B3"/>
<path d="M17.9551 4.93457V9.8691L18.3053 9.94339C19.0375 10.092 19.9501 10.4421 20.6293 10.8348L21.3297 11.238L24.8104 7.75733C27.8454 4.72233 28.2698 4.25541 28.1213 4.13867C26.487 2.83341 25.9246 2.46199 24.5132 1.76161C22.7941 0.891433 20.6293 0.26533 18.6767 0.074316L17.9551 3.24249e-05V4.93457Z" fill="#B3B3B3"/>
<path d="M3.76723 6.32466C1.74035 8.86091 0.39264 12.1294 0.0742833 15.3342L0 16.0452L4.91331 16.0239L9.82662 15.9921L10.007 15.2387C10.1768 14.5277 10.5695 13.6469 11.0258 12.9359L11.2168 12.6494L7.76791 9.20049C5.86838 7.30096 4.29782 5.75162 4.26598 5.75162C4.23415 5.76223 4.0113 6.01692 3.76723 6.32466Z" fill="#B3B3B3"/>
<path d="M26.2113 9.22171L22.7412 12.7024L23.1445 13.3497C23.4947 13.9334 23.8555 14.8779 24.0465 15.748L24.1101 16.0452H29.0553H34.0004L33.9262 15.3236C33.6502 12.5539 32.4829 9.42334 30.923 7.2479C30.3287 6.43078 29.7769 5.75162 29.7132 5.75162C29.692 5.75162 28.1214 7.31157 26.2113 9.22171Z" fill="#B3B3B3"/>
<path d="M0.0742833 18.6661C0.403252 21.9664 1.89953 25.4896 3.97946 27.9303L4.28721 28.2805L7.74669 24.821L11.2168 21.3509L11.0258 21.0644C10.5695 20.3534 10.1768 19.4726 10.007 18.7616L9.82662 18.0082L4.91331 17.9764L0 17.9551L0.0742833 18.6661Z" fill="#B3B3B3"/>
<path d="M24.0465 18.2417C23.813 19.271 23.3885 20.3322 22.9534 20.9795L22.7412 21.3085L26.2325 24.7998L29.7132 28.2805L30.021 27.9303C32.1115 25.4896 33.5972 21.9558 33.9262 18.6661L34.0004 17.9551H29.0553H24.1101L24.0465 18.2417Z" fill="#B3B3B3"/>
<path d="M20.7142 23.1018C20.0775 23.5157 19.2497 23.8553 18.4644 24.0144L17.9551 24.1312V29.0657V34.0002L18.6767 33.926C21.9558 33.597 25.4895 32.1113 27.9303 30.0208L28.2805 29.713L24.7891 26.2323L21.2978 22.741L20.7142 23.1018Z" fill="#B3B3B3"/>
<path d="M9.15798 26.2748L5.71973 29.713L6.06992 30.0208C8.51066 32.1113 12.0444 33.597 15.3341 33.926L16.0451 34.0002V29.0657V24.1312L15.5994 24.0569C14.9627 23.9508 13.8803 23.5263 13.2648 23.1549C12.9783 22.9745 12.713 22.8365 12.6705 22.8365C12.6281 22.8365 11.0469 24.3859 9.15798 26.2748Z" fill="#B3B3B3"/>
</svg>
