<svg width="78" height="77" viewBox="0 0 78 77" fill="none" xmlns="http://www.w3.org/2000/svg">
<path d="M20.4511 2.66191C15.774 4.1207 11.939 5.30879 11.924 5.32383C11.909 5.33887 12.0293 5.82012 12.1947 6.37656C12.3601 6.94805 12.4504 7.45937 12.3752 7.50449C12.315 7.56465 11.4127 7.86543 10.375 8.18125C9.33728 8.49707 8.44998 8.79785 8.37478 8.85801C8.28455 8.96328 9.35232 12.7381 9.60798 13.1742C9.66814 13.2945 10.3599 13.1291 11.8037 12.693C12.9617 12.332 13.9242 12.0312 13.9392 12.0312C13.9392 12.0312 14.1047 12.4975 14.2701 13.084C14.4506 13.6555 14.6461 14.1367 14.7062 14.1367C14.8265 14.1367 32.0763 8.84297 32.1666 8.78281C32.1967 8.75273 32.0763 8.27148 31.9109 7.71504C31.7304 7.15859 31.6402 6.64727 31.7004 6.60215C31.7605 6.54199 32.6478 6.24121 33.6855 5.94043C34.7232 5.62461 35.6256 5.32383 35.7008 5.24863C35.8361 5.12832 34.6931 1.12793 34.4525 0.872265C34.4074 0.812109 33.4148 1.05273 32.2568 1.42871C31.0988 1.78965 30.1513 2.07539 30.1513 2.06035C30.1363 2.04531 30.001 1.59414 29.8355 1.05273C29.6099 0.31582 29.4595 0.0751944 29.234 0.0451164C29.0836 0.0300779 25.1283 1.21816 20.4511 2.66191Z" fill="#333333"/>
<path d="M48.6645 0.97753C48.484 1.60917 48.3035 1.95507 48.1682 1.95507C48.0479 1.95507 47.0703 1.68437 45.9875 1.33847C44.9197 1.00761 44.0174 0.751945 44.0023 0.782022C43.867 0.947453 42.6939 4.99296 42.7391 5.12831C42.7691 5.23359 43.6715 5.56444 44.7393 5.8953C45.8221 6.22616 46.7395 6.54198 46.8146 6.60214C46.8748 6.6623 46.7695 7.12851 46.6041 7.65487C46.4236 8.18124 46.3334 8.64745 46.4086 8.72265C46.559 8.858 63.7637 14.1818 63.8389 14.1066C63.8539 14.0766 64.0193 13.5953 64.2148 13.0389C64.4705 12.2418 64.6059 12.0312 64.7863 12.0914C64.9367 12.1365 65.8391 12.4072 66.8016 12.708C67.7791 13.0088 68.6514 13.2344 68.7416 13.2043C68.907 13.1441 70.3207 8.88808 70.2004 8.81288C70.1703 8.79784 69.2078 8.48202 68.0348 8.13613L65.9143 7.48945L66.2602 6.40663C66.4406 5.82011 66.576 5.32382 66.576 5.32382C66.4857 5.23359 49.3262 -8.58307e-06 49.1607 -8.58307e-06C49.0254 -8.58307e-06 48.8449 0.375968 48.6645 0.97753Z" fill="#333333"/>
<path d="M37.0693 17.9567C31.4146 18.844 26.933 23.1753 25.775 28.8751C25.414 30.6647 25.5494 33.5823 26.0607 35.3118C26.2562 35.9886 26.4668 36.5901 26.5119 36.6503C26.572 36.6954 27.2338 36.1389 28.0008 35.402C31.1439 32.4243 33.6254 31.0257 38.7236 29.3563C43.4308 27.8073 44.8144 27.0102 47.8373 24.0776L49.5517 22.4384L48.875 21.7315C47.4763 20.2727 44.8746 18.7688 42.9345 18.2725C40.7689 17.7311 39.0996 17.6409 37.0693 17.9567Z" fill="#333333"/>
<path d="M11.5481 24.8746C9.17189 25.2205 7.1717 25.5664 7.11154 25.6265C7.00627 25.7318 8.35978 35.7929 8.51018 35.9283C8.57033 35.9884 17.4735 34.7552 17.5637 34.68C17.669 34.5597 16.15 24.3031 16.0147 24.273C15.9244 24.258 13.9242 24.5287 11.5481 24.8746Z" fill="#333333"/>
<path d="M62.35 24.3782C62.3049 24.4985 62.0041 26.589 61.6733 29.0253C61.3274 31.4616 61.0266 33.5972 60.9815 33.7626C60.9213 34.0634 61.1319 34.1085 65.4481 34.71C67.9295 35.071 70.02 35.2966 70.0801 35.2364C70.2756 35.0108 71.5088 25.7317 71.3584 25.5964C71.2682 25.5212 69.3883 25.2054 67.1475 24.9046C64.9217 24.5888 62.9366 24.303 62.7561 24.2579C62.5455 24.2128 62.3951 24.2579 62.35 24.3782Z" fill="#333333"/>
<path d="M50.3939 27.6719C47.3561 30.5594 44.9498 31.9129 40.0471 33.5372C35.1895 35.1313 33.7006 35.9735 30.7529 38.8309L28.9482 40.5754L29.625 41.2823C31.159 42.8764 33.6404 44.26 36.0316 44.8315C37.9266 45.2977 40.6186 45.2977 42.4834 44.8315C48.4238 43.3577 52.5746 38.3346 52.8904 32.2588C52.9355 31.2963 52.9055 30.1383 52.8002 29.4766C52.6197 28.2735 52.0482 26.3184 51.8979 26.3184C51.8527 26.3334 51.176 26.935 50.3939 27.6719Z" fill="#333333"/>
<path d="M60.2446 38.9061C60.0791 39.7483 59.5377 43.7938 59.5829 43.8389C59.6731 43.9141 68.6063 45.1473 68.6665 45.0721C68.7416 44.9969 69.4786 39.7934 69.4184 39.7333C69.3583 39.6731 61.0416 38.5001 60.6506 38.5001C60.425 38.5001 60.3047 38.6204 60.2446 38.9061Z" fill="#333333"/>
<path d="M13.2625 39.7482C9.62307 40.2596 9.0215 40.3799 9.08166 40.5904C9.12678 40.7258 9.30725 41.9289 9.48772 43.2674C9.80354 45.5533 9.84865 45.7188 10.1344 45.7188C10.6457 45.7188 18.842 44.5307 18.9172 44.4404C18.9623 44.3953 18.827 43.2072 18.6315 41.7785C18.2705 39.2219 18.2705 39.1768 17.8946 39.1617C17.684 39.1467 15.6086 39.4023 13.2625 39.7482Z" fill="#333333"/>
<path d="M58.876 48.6063C58.7857 49.0273 54.8906 76.5939 54.8906 76.8346C54.8906 76.9549 56.2141 77 59.5527 77C62.1244 77 64.2148 76.9398 64.2148 76.8797C64.2148 76.8195 65.0871 70.6385 66.1549 63.1641C67.2227 55.6746 68.0949 49.5387 68.0799 49.5236C68.0348 49.4785 59.4625 48.2754 59.1918 48.2754C59.0715 48.2754 58.9211 48.4258 58.876 48.6063Z" fill="#333333"/>
<path d="M14.7063 49.5236C11.5029 49.9898 10.5254 50.1703 10.5254 50.3357C10.5254 50.5613 14.0746 75.6615 14.225 76.5037L14.3152 77H18.9773H23.6545L23.5793 76.5037C23.5342 76.248 22.6318 69.9166 21.5791 62.4422L19.6541 48.877L19.2631 48.892C19.0525 48.907 16.9922 49.1928 14.7063 49.5236Z" fill="#333333"/>
<path d="M34.5879 62.9986V77H39.25H43.9121V62.9986V48.9973L43.5813 49.0875C42.7541 49.3131 40.2877 49.6289 39.25 49.6289C38.2123 49.6289 35.7459 49.3131 34.9338 49.0875L34.5879 48.9973V62.9986Z" fill="#333333"/>
</svg>
