<svg width="77" height="77" viewBox="0 0 77 77" fill="none" xmlns="http://www.w3.org/2000/svg">
<path d="M36.939 5.59776C18.0229 15.5473 13.7853 17.7923 13.5064 18.0447C12.7226 18.762 12.3773 20.1967 12.7094 21.3789C13.0282 22.5346 13.161 22.6143 25.3157 29.0437C31.5591 32.3513 37.0453 35.2339 37.5102 35.4465C38.2408 35.7786 38.4534 35.8317 39.2371 35.7786C40.1138 35.7254 40.26 35.659 52.2818 29.3758C59.3621 25.6829 64.6225 22.8534 64.8881 22.6143C65.7383 21.804 66.0438 20.5553 65.6852 19.2934C65.3664 18.1377 65.2999 18.0978 52.2818 11.3629L40.1271 5.06641L39.1308 5.01328C38.1611 4.97343 38.108 4.98671 36.939 5.59776Z" fill="#333333"/>
<path d="M10.7301 27.3832C9.93307 27.7817 9.32202 28.5123 9.10948 29.3093C9.01649 29.6281 8.98992 34.7424 9.00321 44.134L9.04306 58.454L9.3353 58.9853C9.48142 59.2776 9.78695 59.6761 9.99949 59.8621C10.3183 60.1543 30.7886 71.8839 32.4491 72.7208C33.1664 73.0794 34.455 73.0927 35.2254 72.7473C35.8763 72.4418 36.6468 71.5784 36.8461 70.8876C36.9656 70.5157 37.0055 66.4907 37.0055 55.8503V41.3179L36.6867 40.6537C36.514 40.2817 36.1952 39.8301 35.9826 39.6441C35.7568 39.4581 30.5363 36.5623 24.3726 33.2147C13.3204 27.2105 13.161 27.1308 12.2976 27.0776C11.5537 27.0245 11.3412 27.0643 10.7301 27.3832Z" fill="#333333"/>
<path d="M65.5656 27.2105C64.7686 27.5293 43.0761 39.3784 42.744 39.6972C42.5581 39.8567 42.2791 40.2817 42.1064 40.6537L41.7876 41.3179V55.8503C41.7876 66.4907 41.8274 70.5157 41.947 70.8876C42.1463 71.5784 42.9167 72.4418 43.5676 72.7473C44.3381 73.0927 45.6266 73.0794 46.3439 72.7208C48.0443 71.8573 68.488 60.1676 68.7936 59.8621C69.0061 59.6761 69.3116 59.2776 69.4578 58.9853L69.75 58.454V43.8285V29.203L69.3515 28.5521C68.7803 27.6488 67.9036 27.1308 66.8409 27.0776C66.3759 27.0511 65.8313 27.1175 65.5656 27.2105Z" fill="#333333"/>
</svg>
