<svg width="78" height="77" viewBox="0 0 78 77" fill="none" xmlns="http://www.w3.org/2000/svg">
<path d="M58.5519 11.08C54.0732 11.6337 50.2958 14.7959 48.9915 19.0901C48.5732 20.4435 48.4132 22.1907 48.5855 23.5073C49.1638 28.0353 52.7689 33.6091 58.9826 39.6259L59.93 40.5364L61.9848 38.457C66.1806 34.212 68.9121 30.3977 70.3394 26.8294C71.0038 25.1684 71.2376 23.9626 71.2376 22.2892C71.2376 19.1762 70.1056 16.457 67.9032 14.2914C65.4792 11.9044 61.8741 10.6617 58.5519 11.08ZM61.4926 19.1885C63.6459 20.2959 64.1381 23.1628 62.477 24.8485C61.628 25.6975 61.1358 25.9066 59.9177 25.9066C59.081 25.9066 58.7734 25.8451 58.3674 25.6359C57.543 25.193 57.1246 24.7746 56.7309 23.9749C55.8204 22.1784 56.5217 20.1236 58.3551 19.2008C59.0564 18.844 59.1917 18.8194 60.0407 18.8686C60.6683 18.8932 61.1358 19.0039 61.4926 19.1885Z" fill="#333333"/>
<path d="M41.3629 36.07C37.9546 36.636 35.1246 39.3061 34.3741 42.6651C34.0665 44.0678 34.1772 46.2826 34.6202 47.4761C35.4938 49.8262 37.0687 51.5365 39.2712 52.5331C40.8092 53.2345 41.3629 53.2837 47.7611 53.2837C51.2309 53.2837 53.8025 53.3452 54.1224 53.419C55.562 53.7512 56.9155 54.8463 57.5553 56.1998C57.8506 56.8273 57.8875 57.0611 57.8875 58.1439C57.8875 59.2636 57.8506 59.4481 57.5061 60.1741C57.0262 61.1953 56.2018 62.0197 55.1437 62.5365L54.3193 62.9425L40.637 62.9794L26.9423 63.004V64.9112V66.8184L40.883 66.7938L54.8114 66.7568L55.7958 66.4246C58.675 65.4403 60.7913 63.2009 61.5173 60.3463C61.8126 59.1774 61.8372 57.258 61.5665 56.1137C61.0005 53.6897 59.2902 51.5611 56.9524 50.3922C55.2913 49.5555 55.3651 49.5555 48.1672 49.4817L41.6459 49.4078L40.8092 49.0141C39.8003 48.5342 38.9144 47.6606 38.4222 46.6763C38.1146 46.0365 38.0777 45.8396 38.0777 44.6707C38.0777 43.5141 38.1146 43.3049 38.4222 42.6405C38.8036 41.8161 39.6649 40.881 40.4401 40.4257C41.5106 39.7982 41.9658 39.749 47.4535 39.749H52.5352V37.8419V35.9347L47.2812 35.947C44.3774 35.9593 41.7197 36.0085 41.3629 36.07Z" fill="#333333"/>
<path d="M18.2063 38.1493C14.4535 38.6169 11.0821 40.9793 9.40875 44.3015C8.63358 45.8518 8.33828 47.0207 8.26445 48.8663C8.19062 50.8965 8.38749 52.0162 9.13805 53.8988C10.5653 57.467 13.3092 61.2813 17.4926 65.5263L19.5474 67.6057L20.4457 66.7567C26.524 60.9368 30.3137 55.08 30.892 50.5766C31.0642 49.2601 30.9043 47.5129 30.4859 46.1594C29.3416 42.4066 26.2287 39.4044 22.4759 38.4569C21.1839 38.137 19.3752 38.0017 18.2063 38.1493ZM21.1347 46.2824C22.9557 47.1807 23.6448 49.2478 22.7466 51.0442C22.1436 52.2623 21.1593 52.9144 19.8058 53.0006C17.2958 53.1851 15.3517 50.6874 16.1761 48.3496C16.7175 46.8115 17.9848 45.9133 19.6336 45.901C20.2242 45.901 20.5318 45.9748 21.1347 46.2824Z" fill="#333333"/>
</svg>
