<svg width="35" height="32" viewBox="0 0 35 32" fill="none" xmlns="http://www.w3.org/2000/svg">
<path d="M15.6614 0.0855217C14.8008 0.367426 14.0293 0.871885 13.421 1.55439C12.9759 2.04401 10.8838 5.73844 6.9817 12.8751C-0.525845 26.5993 0.00828818 25.531 0.00828818 27.0148C0.00828818 28.083 0.0676363 28.3353 0.497911 29.2106C1.07656 30.3976 2.01129 31.273 3.1389 31.7033C3.9401 32 4.23685 32 17.0709 32C29.9049 32 30.2017 32 31.0029 31.7033C32.1305 31.273 33.0652 30.3976 33.6439 29.2106C34.0741 28.3353 34.1335 28.083 34.1335 27.0148C34.1335 25.531 34.6676 26.5993 27.1601 12.8751C23.2579 5.7236 21.1659 2.04401 20.7208 1.55439C19.7564 0.471285 18.8365 0.0558472 17.2934 0.0113373C16.5961 -0.0183372 15.8691 0.0113373 15.6614 0.0855217ZM18.154 8.4091C19.059 8.97291 19.0887 9.15096 19.0442 15.3083L18.9997 20.8722L18.4359 21.4212C17.9314 21.9405 17.8127 21.985 17.0709 21.985C16.329 21.985 16.2103 21.9405 15.7059 21.4212L15.1421 20.8722L15.0976 15.3083C15.053 9.15096 15.0827 8.97291 15.9878 8.4091C16.2697 8.2459 16.7296 8.11236 17.0709 8.11236C17.4121 8.11236 17.8721 8.2459 18.154 8.4091ZM18.1985 24.4479C19.7861 25.5756 19.0145 27.994 17.0709 27.994C15.1421 27.994 14.3705 25.6052 15.9136 24.4479C16.4774 24.0325 17.6199 24.0325 18.1985 24.4479Z" fill="#4C4C4C"/>
</svg>
