<svg width="34" height="34" viewBox="0 0 34 34" fill="none" xmlns="http://www.w3.org/2000/svg">
<path d="M14.3942 2.31085C12.5102 4.18011 12.2158 4.53336 12.2158 4.94548C12.2158 5.63725 12.6427 5.93162 13.776 6.00522L14.718 6.06409V7.59482V9.11084L15.2037 9.00781C15.4539 8.94894 16.2782 8.90478 16.9994 8.90478C17.7353 8.90478 18.5448 8.94894 18.8098 9.00781L19.2807 9.11084V7.59482V6.06409L20.2227 6.00522C21.3561 5.93162 21.7829 5.63725 21.7829 4.94548C21.7829 4.53336 21.4885 4.18011 19.6046 2.31085C17.8089 0.544619 17.3379 0.147217 16.9994 0.147217C16.6608 0.147217 16.1898 0.544619 14.3942 2.31085Z" fill="#4C4C4C"/>
<path d="M15.6456 10.9652C13.4819 11.4362 11.7304 13.0111 11.0386 15.0864C10.7737 15.8812 10.7296 16.2934 10.7737 17.3384C10.862 19.0899 11.2594 20.0613 12.3928 21.283C16.3226 25.4778 23.2551 22.799 23.2551 17.0734C23.2551 14.0267 21.2681 11.5981 18.2655 10.9505C17.1027 10.715 16.823 10.715 15.6456 10.9652Z" fill="#4C4C4C"/>
<path d="M2.25194 14.4537C0.500432 16.1905 0 16.7792 0 17.0736C0 17.3679 0.500432 17.9567 2.25194 19.6935C4.66579 22.0926 4.88657 22.2104 5.51947 21.5627C5.82856 21.2684 5.88744 21.0623 5.88744 20.3117V19.4285H7.44761H8.99306L8.87531 18.722C8.72813 17.8389 8.72813 16.3082 8.87531 15.4104L8.99306 14.7186H7.44761H5.88744V13.8355C5.88744 13.0848 5.82856 12.8788 5.51947 12.5844C4.88657 11.9368 4.66579 12.0545 2.25194 14.4537Z" fill="#4C4C4C"/>
<path d="M28.4804 12.5843C28.1713 12.8787 28.1125 13.0848 28.1125 13.8354V14.7185H26.5523H25.0068L25.1246 15.4103C25.1835 15.8077 25.2423 16.5436 25.2423 17.0735C25.2423 17.6034 25.1835 18.3393 25.1246 18.722L25.0068 19.4285H26.5523H28.1125V20.3116C28.1125 21.0622 28.1713 21.2683 28.4804 21.5627C29.128 22.225 29.3341 22.0925 31.748 19.6787C33.4553 17.9713 33.9999 17.3384 33.9999 17.0588C33.9999 16.7791 33.4553 16.1609 31.748 14.4536C29.3341 12.0545 29.1133 11.9367 28.4804 12.5843Z" fill="#4C4C4C"/>
<path d="M14.718 26.5524V28.0831L13.776 28.142C12.6427 28.2156 12.2158 28.51 12.2158 29.2017C12.2158 29.6139 12.5102 29.9671 14.3942 31.8364C16.1898 33.6026 16.6608 34 16.9994 34C17.3379 34 17.8089 33.6026 19.6046 31.8364C21.4885 29.9671 21.7829 29.6139 21.7829 29.2017C21.7829 28.51 21.3561 28.2156 20.2227 28.142L19.2807 28.0831V26.5524V25.0217L18.8098 25.1394C18.5448 25.1983 17.7353 25.2424 16.9994 25.2424C16.2782 25.2424 15.4539 25.1983 15.2037 25.1394L14.718 25.0217V26.5524Z" fill="#4C4C4C"/>
</svg>
