<svg width="100" height="100" viewBox="0 0 100 100" fill="none" xmlns="http://www.w3.org/2000/svg">
<path d="M53.4375 50C53.4375 41.9437 59.8062 35.4187 67.6562 35.4187C75.5125 35.4187 81.875 41.9375 81.875 50C81.875 58.0562 75.5125 64.5812 67.6562 64.5812C59.8125 64.5812 53.4375 58.0625 53.4375 50Z" fill="#1ABCFE"/>
<path d="M25 79.1688C25 71.1125 31.3688 64.5813 39.2188 64.5813H53.4375V79.1688C53.4375 87.2188 47.0688 93.75 39.2188 93.75C31.3688 93.75 25 87.2188 25 79.1688Z" fill="#0ACF83"/>
<path d="M53.4375 6.25V35.4187H67.6562C75.5125 35.4187 81.875 28.8875 81.875 20.8312C81.875 12.7812 75.5125 6.25 67.6562 6.25H53.4375Z" fill="#FF7262"/>
<path d="M25 20.8312C25 28.8875 31.3688 35.4187 39.2188 35.4187H53.4375V6.25H39.2188C31.3688 6.25 25 12.7812 25 20.8312Z" fill="#F24E1E"/>
<path d="M25 50C25 58.0562 31.3688 64.5812 39.2188 64.5812H53.4375V35.4187H39.2188C31.3688 35.4187 25 41.9375 25 50Z" fill="#A259FF"/>
</svg>
