<svg width="32" height="18" viewBox="0 0 32 18" fill="none" xmlns="http://www.w3.org/2000/svg">
<path d="M22.7012 0.403111C22.4878 0.503504 22.2118 0.704287 22.0988 0.867424C21.8729 1.20625 21.8353 1.99684 22.0361 2.39841C22.1114 2.54899 23.2533 3.76625 24.571 5.08389L26.9804 7.50586H14.1427C0.38902 7.50586 0.828235 7.48076 0.25098 8.13331C0.0752941 8.32154 0 8.58507 0 9.01174C0 9.43841 0.0752941 9.70193 0.25098 9.89017C0.828235 10.5427 0.38902 10.5176 14.1427 10.5176H26.9804L24.571 12.927C23.2533 14.2572 22.1114 15.4745 22.0361 15.6251C21.8102 16.0643 21.8729 16.8423 22.1616 17.2062C22.5004 17.658 23.2659 17.8839 23.7427 17.6831C23.9435 17.6078 25.8761 15.7631 28.0471 13.5921L32 9.63919V9.01174V8.38429L28.1098 4.48154C25.9765 2.34821 24.069 0.503504 23.8808 0.403111C23.4667 0.189777 23.2031 0.189777 22.7012 0.403111Z" fill="#7E7C7C"/>
</svg>
