<svg width="34" height="29" viewBox="0 0 34 29" fill="none" xmlns="http://www.w3.org/2000/svg">
<path d="M15.4054 0.403492C14.3187 0.722414 13.7045 1.08858 12.8541 1.93904C10.9523 3.84076 10.5625 6.61655 11.8737 8.97893C13.0076 11.0106 15.5944 12.2745 17.8623 11.8965C21.2287 11.3177 23.4611 8.14029 22.7761 4.8802C22.4453 3.30922 21.1342 1.54925 19.764 0.852345C18.4293 0.179066 16.7638 0.00188732 15.4054 0.403492Z" fill="#4C4C4C"/>
<path d="M5.2479 5.88416C4.14939 6.25033 3.14538 7.17166 2.60203 8.31741C2.34217 8.88438 2.29492 9.13243 2.29492 10.101C2.29492 11.0696 2.34217 11.3176 2.60203 11.8728C3.0627 12.8414 3.77141 13.5737 4.69274 14.0226C5.42508 14.3887 5.56682 14.4124 6.66533 14.4124C7.76383 14.4124 7.89376 14.3887 8.55523 14.0462C9.84273 13.3611 10.7877 12.0854 10.9649 10.7507C11.2365 8.8017 10.2325 6.9118 8.51979 6.10859C7.97645 5.84873 7.64571 5.78967 6.78344 5.76604C6.1456 5.74242 5.53138 5.80148 5.2479 5.88416Z" fill="#4C4C4C"/>
<path d="M25.7167 6.00228C23.9804 6.73462 23 8.2111 23.0118 10.101C23.0118 10.9869 23.189 11.6956 23.567 12.3098C23.9686 12.9477 24.7482 13.6682 25.4451 14.0344C26.1065 14.3887 26.2365 14.4124 27.335 14.4124C28.4335 14.4124 28.5752 14.3887 29.3076 14.0226C30.2289 13.5737 30.9376 12.8414 31.3983 11.8728C31.6581 11.3176 31.7054 11.0696 31.7054 10.101C31.7054 9.13243 31.6581 8.88438 31.3865 8.3056C30.973 7.4079 30.158 6.55744 29.3194 6.14402C28.7406 5.84872 28.4807 5.78967 27.5122 5.75423C26.5436 5.73061 26.2955 5.76604 25.7167 6.00228Z" fill="#4C4C4C"/>
<path d="M12.784 13.3495C10.965 13.8456 9.58301 15.2748 9.21684 17.0466C9.13416 17.4482 9.08691 19.5625 9.08691 23.047V28.4215L9.38221 28.7049L9.6657 29.0002H17.0009H24.3361L24.6196 28.7049L24.9149 28.4215V23.047C24.9149 19.5625 24.8676 17.4482 24.7849 17.0466C24.5014 15.7237 23.4738 14.3535 22.2926 13.7511C21.2886 13.2314 20.6862 13.1723 16.9418 13.1841C14.2842 13.1841 13.2447 13.2314 12.784 13.3495Z" fill="#4C4C4C"/>
<path d="M3.41624 15.9956C2.09331 16.4208 1.06568 17.354 0.427834 18.7005L0.0498527 19.4919L0.014417 22.9528C-0.0210187 25.8585 0.00260509 26.4964 0.15616 26.9688C0.416022 27.7366 0.935745 28.3272 1.66808 28.6934C2.27049 29.0005 2.32955 29.0005 4.78643 29.0005H7.27874L7.17243 28.3863C7.10156 28.0437 7.07793 25.4451 7.10156 22.3386C7.14881 17.7674 7.18424 16.7988 7.3378 16.3263L7.52679 15.7712L5.80225 15.783C4.47932 15.783 3.91234 15.8302 3.41624 15.9956Z" fill="#4C4C4C"/>
<path d="M26.6626 16.3261C26.8162 16.7985 26.8516 17.7671 26.8989 22.3383C26.9225 25.4449 26.8989 28.0435 26.828 28.386L26.7217 29.0002H29.214C31.6709 29.0002 31.7299 29.0002 32.3323 28.6931C33.0647 28.327 33.5844 27.7364 33.8443 26.9686C33.9978 26.4961 34.0214 25.8583 33.986 22.9526L33.9506 19.4917L33.5726 18.7003C33.1474 17.8026 32.3323 16.8576 31.6 16.4324C30.7141 15.9127 29.97 15.7709 28.1509 15.7709H26.4736L26.6626 16.3261Z" fill="#4C4C4C"/>
</svg>
