<svg width="35" height="29" viewBox="0 0 35 29" fill="none" xmlns="http://www.w3.org/2000/svg">
<path d="M5.75023 1.90068L3.8376 3.80143L2.8991 2.85106C2.35264 2.30459 1.82993 1.87693 1.63986 1.84129C0.879559 1.67497 0.166778 2.49467 0.45189 3.19557C0.653845 3.67076 3.18422 6.14173 3.58812 6.23677C3.76632 6.28429 4.06331 6.26053 4.25339 6.17737C4.44346 6.10609 5.61955 5.01316 6.86692 3.75391C9.05278 1.54429 9.13593 1.43738 9.13593 0.98595C9.13593 0.368207 8.76766 -6.38962e-05 8.12616 -6.38962e-05C7.68661 -6.38962e-05 7.56782 0.106853 5.75023 1.90068Z" fill="#4C4C4C"/>
<path d="M18.1045 1.90091L16.2156 3.78977L15.3127 2.92256C14.8257 2.44737 14.303 1.99594 14.1485 1.91279C13.5308 1.58015 12.6992 2.15038 12.6992 2.88692C12.6992 3.19579 12.9368 3.49278 14.2198 4.77579C15.5741 6.13007 15.7879 6.29639 16.1443 6.29639C16.5126 6.29639 16.7739 6.08255 19.0192 3.82541C21.2288 1.62767 21.4902 1.3188 21.4902 0.974291C21.4902 0.415946 21.0388 0.000157833 20.4566 0.000157833C20.029 0.000157833 19.8864 0.107075 18.1045 1.90091Z" fill="#4C4C4C"/>
<path d="M30.3411 1.90091L28.4404 3.80165L27.49 2.85128C26.3615 1.72271 26.0051 1.59203 25.4348 2.0791C25.1378 2.32857 25.0547 2.48301 25.0547 2.8394C25.0547 3.24331 25.1735 3.39775 26.5753 4.78767C27.9177 6.11819 28.1553 6.29639 28.4998 6.29639C28.8562 6.29639 29.1294 6.07067 31.2084 4.00361C32.4676 2.75624 33.5843 1.56828 33.6793 1.39008C34.0238 0.748578 33.513 0.000157833 32.729 0.000157833C32.2775 0.000157833 32.1825 0.0833158 30.3411 1.90091Z" fill="#4C4C4C"/>
<path d="M3.63513 9.27782C2.45904 9.55106 1.11664 10.5965 0.57017 11.6538C-0.950429 14.6356 0.760245 18.0688 4.05092 18.6628C6.55753 19.1142 9.06414 17.2728 9.50369 14.6593C9.9076 12.319 8.35136 9.94308 6.02294 9.31346C5.32204 9.13527 4.32415 9.11151 3.63513 9.27782Z" fill="#4C4C4C"/>
<path d="M15.8121 9.33771C14.541 9.68222 13.2936 10.7395 12.7234 11.9869C12.2838 12.9372 12.2244 14.3034 12.5689 15.4082C13.1986 17.4278 14.933 18.687 17.0951 18.687C19.9343 18.687 21.9776 16.5012 21.8232 13.6263C21.6688 10.6088 18.7701 8.54177 15.8121 9.33771Z" fill="#4C4C4C"/>
<path d="M28.1186 9.31397C26.408 9.81292 25.1368 11.1791 24.7329 12.9729C24.1508 15.5746 25.8971 18.1168 28.6651 18.6752C30.0075 18.9365 31.635 18.4138 32.728 17.3565C35.1395 15.0043 34.4624 11.0365 31.4093 9.59908C30.4827 9.17142 29.0571 9.04074 28.1186 9.31397Z" fill="#4C4C4C"/>
<path d="M0.308872 19.9224C0.0593984 20.4689 0.0475187 20.659 0.0118797 24.1041C-0.0118797 26.088 0 27.8462 0.0475187 28.0006C0.0831577 28.155 0.213834 28.3808 0.344511 28.5114C0.570225 28.7371 0.760299 28.749 4.78751 28.749H8.99292L9.30179 28.3808L9.61066 28.0125V24.7218C9.61066 21.4311 9.53938 20.5877 9.20675 19.7917L9.02855 19.376L8.36329 19.7799C6.07052 21.1579 3.01744 21.0866 0.926615 19.5898L0.582104 19.3403L0.308872 19.9224Z" fill="#4C4C4C"/>
<path d="M12.628 19.863C12.4261 20.3263 12.4023 20.7778 12.3667 24.2585L12.3311 28.155L12.628 28.452L12.925 28.749H17.0948H21.2646L21.5616 28.452L21.8586 28.155L21.8229 24.2585C21.7873 20.659 21.7754 20.3382 21.5497 19.8749L21.3121 19.376L20.6943 19.768C18.5204 21.146 15.4198 21.0866 13.222 19.6017L12.8419 19.3641L12.628 19.863Z" fill="#4C4C4C"/>
<path d="M24.983 19.7917C24.6504 20.5877 24.5791 21.4311 24.5791 24.7218V28.0125L24.888 28.3808L25.1968 28.749H29.4023C33.4295 28.749 33.6195 28.7371 33.8452 28.5114C33.9759 28.3808 34.1066 28.155 34.1422 28.0006C34.1898 27.8462 34.2016 26.088 34.1779 24.1041C34.1422 20.659 34.1304 20.4689 33.8809 19.9224L33.6077 19.3403L33.2631 19.5898C31.1723 21.0866 28.1192 21.1579 25.8265 19.7799L25.1612 19.376L24.983 19.7917Z" fill="#4C4C4C"/>
</svg>
