<svg width="34" height="37" viewBox="0 0 34 37" fill="none" xmlns="http://www.w3.org/2000/svg">
<path d="M2.09295 0.167503C1.34456 0.43388 0.697651 1.01737 0.329799 1.76576L0 2.42535V18.2303V34.0353L0.329799 34.6949C0.507382 35.0627 0.86255 35.5194 1.11624 35.735C2.06758 36.5088 1.82658 36.4961 11.7205 36.4961C17.5427 36.4961 20.9042 36.4453 21.2086 36.3692C21.9062 36.1663 22.718 35.494 23.1113 34.7837L23.4664 34.1494V28.4414V22.746L20.9042 25.2956C19.4835 26.6909 18.1389 27.934 17.8979 28.0608C17.6569 28.175 16.3758 28.6443 15.0439 29.0883C12.2025 30.0396 11.4542 30.1157 10.414 29.583C9.37389 29.0629 8.6255 27.8579 8.6255 26.6909C8.6255 26.285 10.173 21.4776 10.5282 20.7672C10.655 20.5262 13.6105 17.4566 17.1115 13.9683L23.4664 7.61334V4.98764C23.4664 2.57757 23.4411 2.32388 23.2001 1.82918C22.8449 1.13153 22.3882 0.636833 21.754 0.307034C21.2466 0.0279732 21.2086 0.0279732 11.9235 0.00260544C4.07174 -0.0100822 2.52423 0.0152893 2.09295 0.167503ZM14.5872 4.53099C15.1327 5.07643 15.0185 5.92629 14.3336 6.26878C13.9023 6.48441 9.66563 6.4971 9.19631 6.28146C8.77771 6.09119 8.4606 5.49502 8.57476 5.12717C8.61282 4.97495 8.77771 4.72126 8.91724 4.55636C9.17094 4.28999 9.24704 4.2773 11.7586 4.2773C14.156 4.2773 14.3462 4.28999 14.5872 4.53099ZM12.5323 30.4836C12.9002 30.9022 12.9002 31.473 12.4943 31.8662C11.6698 32.6907 10.2999 31.7521 10.8072 30.7119C11.1497 29.9762 11.9869 29.8747 12.5323 30.4836Z" fill="#4C4C4C"/>
<path d="M29.4666 4.73393C29.2763 4.81004 28.6167 5.39353 28.0078 6.01507L26.8916 7.13131L29.1748 9.41453L31.458 11.6978L32.7265 10.4166C34.4897 8.62809 34.515 8.75494 32.2191 6.47172C31.1917 5.44427 30.3037 4.65782 30.1388 4.63245C29.9613 4.5944 29.6695 4.64514 29.4666 4.73393Z" fill="#4C4C4C"/>
<path d="M18.8233 15.2113L12.3541 21.7185L11.5677 24.1539C11.1364 25.4858 10.7812 26.6908 10.7812 26.8177C10.7812 27.1602 11.1364 27.6168 11.517 27.7563C11.7706 27.8578 12.3034 27.731 14.3837 27.0333L16.9333 26.1961L23.4278 19.7143L29.9349 13.2198L27.6898 10.9747C26.4467 9.73157 25.4065 8.71681 25.3685 8.71681C25.3304 8.71681 22.3876 11.6469 18.8233 15.2113Z" fill="#4C4C4C"/>
</svg>
