<svg width="34" height="27" viewBox="0 0 34 27" fill="none" xmlns="http://www.w3.org/2000/svg">
<path d="M5.11825 0.233345C4.7037 0.564985 3.46004 2.12844 2.83229 3.09967C1.62417 4.98292 0.641095 7.47022 0.226544 9.72064C-0.0814079 11.3196 -0.0695636 14.6834 0.226544 16.2824C0.877982 19.7646 2.47696 22.9981 4.76292 25.4381C5.24853 25.9592 5.41435 26.054 5.75784 26.054C6.31452 26.054 6.74092 25.6157 6.74092 25.059C6.74092 24.7511 6.62248 24.526 6.2553 24.1233C4.28914 21.9914 2.82045 19.0658 2.22823 16.1047C1.94397 14.7071 1.94397 11.3433 2.22823 9.94568C2.7257 7.43469 3.87459 4.90001 5.35513 3.04045C6.80014 1.21642 6.83567 1.1572 6.75276 0.825562C6.56325 0.0556812 5.73415 -0.252272 5.11825 0.233345Z" fill="#4C4C4C"/>
<path d="M27.5386 0.29257C27.0885 0.766342 27.1596 1.28749 27.7399 1.92708C29.2086 3.51422 30.5944 5.90677 31.2695 7.99137C31.8262 9.74433 31.9802 10.7866 31.9802 13.0252C31.9802 15.2638 31.8262 16.3061 31.2695 18.059C30.5944 20.1436 29.2086 22.5362 27.7399 24.1233C27.3728 24.526 27.2543 24.7511 27.2543 25.059C27.2543 25.9118 28.2019 26.3501 28.877 25.8171C29.2915 25.4854 30.5352 23.922 31.1629 22.9507C32.3948 21.0438 33.3423 18.6157 33.7687 16.2824C34.0766 14.6242 34.0766 11.4025 33.7687 9.76802C33.3423 7.43469 32.3829 5.00661 31.1629 3.09967C30.5352 2.12844 29.2915 0.564989 28.877 0.233349C28.4506 -0.0982933 27.8821 -0.074604 27.5386 0.29257Z" fill="#4C4C4C"/>
<path d="M8.15007 3.98803C6.46818 5.80021 5.29559 8.20461 4.8455 10.7867C4.57309 12.3857 4.66784 14.8019 5.08239 16.3772C5.60354 18.4026 6.78797 20.5819 8.15007 22.0506C8.56462 22.5007 8.74228 22.6191 9.05024 22.6191C9.51217 22.6191 10.1281 22.0625 10.1281 21.6479C10.1281 21.4702 9.79643 20.9372 9.26343 20.274C8.25667 19.0185 7.55785 17.6801 7.08408 16.164C6.78797 15.1809 6.76428 14.944 6.76428 13.0252C6.76428 11.1065 6.78797 10.8696 7.08408 9.8865C7.54601 8.38227 8.26851 7.02018 9.20421 5.83574C10.1991 4.60394 10.2939 4.28414 9.79643 3.78668C9.23975 3.24184 8.80151 3.28922 8.15007 3.98803Z" fill="#4C4C4C"/>
<path d="M24.2116 3.77483C24.0221 3.96434 23.8682 4.24861 23.8682 4.40258C23.8682 4.58025 24.1998 5.11324 24.7328 5.77652C25.7396 7.03202 26.4384 8.37043 26.9122 9.8865C27.2083 10.8696 27.232 11.1065 27.232 13.0252C27.232 14.944 27.2083 15.1809 26.9122 16.164C26.4384 17.6801 25.7396 19.0185 24.7328 20.274C24.1998 20.9372 23.8682 21.4702 23.8682 21.6479C23.8682 22.0625 24.4841 22.6191 24.946 22.6191C25.9646 22.6191 28.1913 19.1369 28.9257 16.3772C29.21 15.323 29.2455 15.0151 29.2455 13.0252C29.2455 11.0236 29.21 10.7274 28.9257 9.6733C28.3808 7.62424 27.1964 5.45673 25.8462 3.98803C25.2066 3.30106 24.7565 3.24184 24.2116 3.77483Z" fill="#4C4C4C"/>
<path d="M11.9526 7.01998C11.1827 7.45822 9.97462 9.51913 9.60745 11.0234C9.35872 12.0301 9.35872 14.02 9.60745 15.0267C9.85618 16.0809 10.5905 17.5733 11.2183 18.3195C12.0237 19.2788 12.5211 19.4091 13.1015 18.8406C13.5753 18.355 13.5398 18.0233 12.9002 17.2179C11.8342 15.8558 11.4078 14.6359 11.4078 13.025C11.4078 11.4142 11.8342 10.1943 12.9002 8.83216C13.5398 8.02674 13.5753 7.6951 13.1015 7.20949C12.7343 6.84231 12.3672 6.78309 11.9526 7.01998Z" fill="#4C4C4C"/>
<path d="M21.0137 7.02034C20.765 7.20985 20.5518 7.6244 20.5518 7.90867C20.5518 8.03895 20.8005 8.45351 21.0966 8.83252C22.1626 10.2065 22.5771 11.3791 22.5771 13.0254C22.5771 14.6718 22.1626 15.8444 21.0966 17.2183C20.8005 17.5973 20.5518 18.0119 20.5518 18.1303C20.5518 18.7699 21.1914 19.2911 21.7954 19.1371C22.3402 18.9949 23.2996 17.7868 23.8682 16.5313C24.3775 15.4061 24.5788 14.3994 24.5788 13.0254C24.5788 10.7513 23.8208 8.7733 22.3995 7.30461C21.9375 6.84268 21.3927 6.72423 21.0137 7.02034Z" fill="#4C4C4C"/>
<path d="M15.7545 10.3482C14.6767 10.8575 14.0371 11.8406 14.0371 13.025C14.0371 14.6714 15.3518 15.9861 16.9982 15.9861C18.6327 15.9861 19.9474 14.6714 19.9593 13.025C19.9593 10.8693 17.697 9.42433 15.7545 10.3482Z" fill="#4C4C4C"/>
</svg>
