<svg width="100" height="100" viewBox="0 0 100 100" fill="none" xmlns="http://www.w3.org/2000/svg">
<path d="M36.8571 73.2107C36.8571 73.5488 36.519 73.7903 36.036 73.7903C35.5531 73.7903 35.1667 73.7903 35.1667 73.2107C35.1667 72.6311 35.5531 72.6311 35.9878 72.6311C36.4224 72.6311 36.8571 72.8726 36.8571 73.2107ZM32.0273 72.4862C32.0273 72.8243 32.0273 73.2107 32.7035 73.3073C32.8764 73.3904 33.0753 73.4015 33.2564 73.3382C33.4375 73.2749 33.586 73.1421 33.6695 72.9692C33.6695 72.6311 33.6694 72.293 32.9933 72.1482C32.3171 72.0033 32.1239 72.1482 32.0273 72.4862ZM38.8856 72.2448C38.4509 72.2448 38.1612 72.6311 38.2095 73.0175C38.2578 73.4039 38.6441 73.5488 39.1271 73.4522C39.6101 73.3556 39.8516 73.0175 39.8033 72.6794C39.755 72.3413 39.3686 72.1965 38.8856 72.2448ZM49.173 11.003C44.0794 10.9551 39.0285 11.9367 34.3236 13.8889C29.6187 15.8412 25.3566 18.7239 21.7932 22.3639C18.2298 26.004 15.4385 30.3265 13.5869 35.0719C11.7352 39.8174 10.8613 44.8878 11.0177 49.9794C10.8829 58.32 13.3564 66.4944 18.0929 73.3609C22.8293 80.2274 29.5921 85.4431 37.4367 88.2797C39.4169 88.6178 40.1412 87.362 40.1412 86.3478C40.1412 85.3335 40.1412 79.8758 40.1412 76.6882C40.1412 76.6882 29.226 79.1031 26.9077 71.8584C26.9077 71.8584 25.169 67.0286 22.6092 66.0143C22.6092 66.0143 19.0352 63.5028 22.8507 63.5511C24.1004 63.7197 25.2931 64.179 26.3332 64.8919C27.3733 65.6047 28.2318 66.5519 28.8397 67.6564C29.345 68.647 30.0474 69.5241 30.9039 70.2331C31.7602 70.9426 32.7526 71.4696 33.8199 71.7816C34.8873 72.0936 36.0071 72.1844 37.1108 72.0482C38.2144 71.912 39.2786 71.5512 40.2378 70.989C40.4209 68.9726 41.2902 67.0802 42.701 65.6279C34.0075 64.6137 25.2173 63.3579 25.2173 47.9509C25.125 46.2102 25.4046 44.47 26.0375 42.8463C26.6704 41.2225 27.6422 39.7519 28.888 38.5329C27.7126 34.9973 27.8497 31.1568 29.2743 27.7141C32.5586 26.6516 40.0446 32.0126 40.0446 32.0126C46.4403 30.2089 53.2102 30.2089 59.6053 32.0126C59.6053 32.0126 67.0915 26.6516 70.3758 27.7141C71.8315 31.15 71.9686 35.0019 70.7621 38.5329C72.0522 39.7351 73.0751 41.1945 73.7658 42.8168C74.456 44.4391 74.7984 46.188 74.7709 47.9509C74.7709 63.4062 65.5943 64.6137 56.9006 65.6279C57.7743 66.6079 58.4394 67.7559 58.8548 69.0015C59.2696 70.2471 59.4266 71.5642 59.3155 72.8726C59.3155 78.282 59.3155 84.9471 59.3155 86.2512C59.3126 86.5772 59.388 86.8993 59.5358 87.1901C59.684 87.4808 59.8994 87.732 60.1651 87.9213C60.4302 88.1111 60.7379 88.2338 61.0605 88.2792C61.3836 88.3251 61.713 88.2917 62.0202 88.1831C69.8508 85.3712 76.5994 80.1704 81.3138 73.3155C86.0286 66.4606 88.4701 58.2973 88.2943 49.9794C88.3397 44.8361 87.3578 39.7355 85.4061 34.9766C83.4544 30.2178 80.5719 25.8965 76.9283 22.2663C73.2847 18.636 68.9524 15.7698 64.1864 13.8357C59.4203 11.9016 54.3162 10.9386 49.173 11.003ZM26.1833 66.1109C26.1833 66.1109 26.1833 66.6422 26.1833 66.932C26.2371 66.9861 26.3011 67.0291 26.3715 67.058C26.442 67.0875 26.5175 67.1025 26.5938 67.1025C26.6701 67.1025 26.7456 67.0875 26.8161 67.058C26.8865 67.0291 26.9505 66.9861 27.0043 66.932C27.0043 66.932 27.0043 66.4007 27.0043 66.0626C27.0043 65.7245 26.3765 65.9177 26.1833 66.1109ZM24.4928 64.8069C24.4928 64.8069 24.4928 65.2898 24.8309 65.4347C24.8716 65.4855 24.9232 65.526 24.9817 65.554C25.0401 65.5816 25.1042 65.5965 25.169 65.5965C25.2338 65.5965 25.2978 65.5816 25.3563 65.554C25.4148 65.526 25.4663 65.4855 25.5071 65.4347C25.5071 65.4347 25.5071 64.9518 25.169 64.8069C24.8309 64.662 24.5894 64.662 24.4928 64.8069ZM29.3226 70.506C29.3226 70.506 29.3226 71.1822 29.3226 71.5203C29.3226 71.8584 30.1437 71.9067 30.3369 71.5203C30.5301 71.1339 30.3369 70.8441 30.3369 70.506C30.3369 70.1679 29.709 70.2645 29.5158 70.506H29.3226ZM27.5356 68.1394C27.5356 68.1394 27.5356 68.719 27.5356 69.1054C27.5356 69.4918 28.2118 69.6367 28.4533 69.4918C28.5756 69.3512 28.6429 69.1711 28.6429 68.9846C28.6429 68.7982 28.5756 68.6181 28.4533 68.4775C28.2118 68.0911 27.8254 67.9462 27.5356 68.1394Z" fill="#181717"/>
</svg>
