<svg width="101" height="100" viewBox="0 0 101 100" fill="none" xmlns="http://www.w3.org/2000/svg">
<path d="M90.4166 10H10.6666V89.75H90.4166V10Z" fill="#FFCA28"/>
<path d="M59.0862 76.3289L64.9578 72.4434C65.418 73.8891 68.3321 77.3226 72.0128 77.3226C75.6935 77.3226 77.4025 75.3124 77.4025 73.9794C77.4025 70.3474 73.644 69.0668 71.8388 68.4519C71.5443 68.3516 71.3022 68.269 71.1364 68.197C71.0512 68.1599 70.9228 68.1107 70.7579 68.0477C68.7502 67.2807 61.3428 64.4507 61.3428 56.2473C61.3428 47.2119 70.0626 46.1729 72.0347 46.1729C73.3247 46.1729 79.5275 46.3309 82.6167 52.1362L76.9203 56.112C75.6716 53.5819 73.5967 52.7462 72.3196 52.7462C69.1646 52.7462 68.5072 55.059 68.5072 56.112C68.5072 59.0661 71.935 60.3903 74.8291 61.5082C75.5865 61.8007 76.3071 62.079 76.9203 62.3689C80.0752 63.8597 84.7201 66.2995 84.7201 73.9794C84.7201 77.8262 81.4937 84.0541 73.3711 84.0541C62.4602 84.0541 59.5681 77.5035 59.0862 76.3289Z" fill="#3E3E3E"/>
<path d="M30.6041 77.1002L36.7241 73.217C37.2034 74.6619 39.067 77.3261 41.7705 77.3261C44.4744 77.3261 45.8583 74.5491 45.8583 73.217V47.0273H53.3847V73.217C53.5066 76.8293 51.5032 84.0541 42.6612 84.0541C34.5318 84.0541 31.1522 79.2227 30.6041 77.1002Z" fill="#3E3E3E"/>
</svg>
