<svg width="20" height="20" viewBox="0 0 20 20" fill="none" xmlns="http://www.w3.org/2000/svg">
<path d="M8.78923 0.0450802C7.11661 0.255754 5.3993 0.951614 4.0012 1.98583C3.35003 2.46463 2.27751 3.56269 1.79232 4.25216C1.02623 5.35022 0.458055 6.6781 0.158005 8.08897C-0.0526684 9.05935 -0.0526684 10.949 0.158005 11.9194C0.458055 13.3239 1.02623 14.6518 1.79232 15.7562C2.27112 16.4457 3.55432 17.7289 4.24379 18.2077C5.34823 18.9738 6.67611 19.5419 8.0806 19.842C9.05098 20.0527 10.9407 20.0527 11.911 19.842C13.3155 19.5419 14.6434 18.9738 15.7478 18.2077C16.4373 17.7289 17.7205 16.4457 18.1993 15.7562C18.9654 14.6518 19.5336 13.3239 19.8336 11.9194C20.0443 10.949 20.0443 9.05935 19.8336 8.08897C19.5336 6.68448 18.9654 5.3566 18.1993 4.25216C17.7205 3.56269 16.4373 2.2795 15.7478 1.80069C14.637 1.02822 13.2836 0.453659 11.911 0.172762C11.1449 0.0131607 9.5617 -0.0506802 8.78923 0.0450802ZM15.4095 5.79072C15.5244 5.86094 15.6712 6.00778 15.7415 6.12269C15.8947 6.37167 15.9138 6.86324 15.7798 7.12498C15.6457 7.38034 9.05736 13.8474 8.83392 13.9431C8.58494 14.0517 8.38065 14.0453 8.12529 13.9368C7.7997 13.8027 4.27571 10.5468 4.19272 10.3106C3.96928 9.67222 4.30125 9.06573 4.93327 8.94444C5.32908 8.86783 5.54614 9.01466 7.00808 10.3617L8.43172 11.664L11.3684 8.73376C12.9835 7.12498 14.3625 5.77157 14.4327 5.73326C14.6498 5.61835 15.1733 5.65027 15.4095 5.79072Z" fill="#999999"/>
</svg>
