<svg width="34" height="37" viewBox="0 0 34 37" fill="none" xmlns="http://www.w3.org/2000/svg">
<path d="M2.09295 0.167747C1.34456 0.434124 0.697651 1.01761 0.329799 1.766L0 2.4256V18.2306V34.0355L0.329799 34.6951C0.507382 35.063 0.86255 35.5196 1.11624 35.7353C2.06758 36.509 1.82658 36.4963 11.7205 36.4963C17.5427 36.4963 20.9042 36.4456 21.2086 36.3695C21.9062 36.1665 22.718 35.4942 23.1113 34.7839L23.4664 34.1497V28.4416V22.7463L20.9042 25.2959C19.4835 26.6912 18.1389 27.9342 17.8979 28.0611C17.6569 28.1753 16.3758 28.6446 15.0439 29.0885C12.2025 30.0399 11.4542 30.116 10.414 29.5832C9.37389 29.0632 8.6255 27.8581 8.6255 26.6912C8.6255 26.2853 10.173 21.4778 10.5282 20.7675C10.655 20.5265 13.6105 17.4568 17.1115 13.9685L23.4664 7.61358V4.98788C23.4664 2.57781 23.4411 2.32412 23.2001 1.82943C22.8449 1.13177 22.3882 0.637077 21.754 0.307278C21.2466 0.0282173 21.2086 0.0282173 11.9235 0.00284958C4.07174 -0.0098381 2.52423 0.0155334 2.09295 0.167747ZM14.5872 4.53123C15.1327 5.07667 15.0185 5.92654 14.3336 6.26902C13.9023 6.48466 9.66563 6.49734 9.19631 6.2817C8.77771 6.09144 8.4606 5.49526 8.57476 5.12741C8.61282 4.97519 8.77771 4.7215 8.91724 4.5566C9.17094 4.29023 9.24704 4.27755 11.7586 4.27755C14.156 4.27755 14.3462 4.29023 14.5872 4.53123ZM12.5323 30.4838C12.9002 30.9024 12.9002 31.4732 12.4943 31.8665C11.6698 32.691 10.2999 31.7523 10.8072 30.7122C11.1497 29.9765 11.9869 29.875 12.5323 30.4838Z" fill="#B3B3B3"/>
<path d="M29.4666 4.73442C29.2763 4.81053 28.6167 5.39402 28.0078 6.01556L26.8916 7.1318L29.1748 9.41502L31.458 11.6982L32.7265 10.4171C34.4897 8.62858 34.515 8.75542 32.2191 6.4722C31.1917 5.44475 30.3037 4.65831 30.1388 4.63294C29.9613 4.59489 29.6695 4.64563 29.4666 4.73442Z" fill="#B3B3B3"/>
<path d="M18.8233 15.2118L12.3541 21.719L11.5677 24.1544C11.1364 25.4863 10.7812 26.6913 10.7812 26.8182C10.7812 27.1606 11.1364 27.6173 11.517 27.7568C11.7706 27.8583 12.3034 27.7314 14.3837 27.0338L16.9333 26.1966L23.4278 19.7148L29.9349 13.2203L27.6898 10.9751C26.4467 9.73206 25.4065 8.71729 25.3685 8.71729C25.3304 8.71729 22.3876 11.6474 18.8233 15.2118Z" fill="#B3B3B3"/>
</svg>
