<svg width="78" height="77" viewBox="0 0 78 77" fill="none" xmlns="http://www.w3.org/2000/svg">
<path d="M17.8323 6.27711C15.1022 6.84852 12.7277 8.14373 10.6833 10.1881C8.85477 12.0039 7.50877 14.3531 6.86117 16.8673C6.6326 17.7181 6.58181 18.3784 6.54372 21.0196L6.48022 24.1687H14.1499H21.8068L26.3527 15.0896L30.8859 6.01045L24.9432 6.02315C19.5719 6.02315 18.8989 6.04854 17.8323 6.27711Z" fill="#333333"/>
<path d="M31.2288 15.0896L26.6956 24.1687H35.5842H44.4729L48.9807 15.1531C51.4568 10.2008 53.4885 6.11203 53.4885 6.07394C53.4885 6.03584 49.5013 6.01045 44.6252 6.01045H35.7747L31.2288 15.0896Z" fill="#333333"/>
<path d="M53.9457 15.0134C51.4569 19.9783 49.4252 24.0671 49.4252 24.1052C49.4252 24.1433 54.4028 24.1687 60.4725 24.1687H71.5198V21.4259C71.5198 19.1784 71.469 18.4546 71.2659 17.426C70.3135 12.7404 67.1009 8.86752 62.6566 7.03899C61.7169 6.64535 60.0916 6.21362 59.0503 6.06124L58.4535 5.98505L53.9457 15.0134Z" fill="#333333"/>
<path d="M6.54371 43.8762C6.56911 59.0631 6.5818 59.1519 6.84846 60.1678C7.53416 62.7201 8.86746 65.0312 10.6833 66.847C12.334 68.485 13.9086 69.4882 16.0546 70.2374C18.4037 71.0754 17.2101 71.0373 39.4571 70.9993L59.6471 70.9612L60.7137 70.6564C65.958 69.1961 69.6913 65.4502 71.1515 60.2186L71.4563 59.1519L71.4944 43.8762L71.5198 28.6131H39.0127H6.50562L6.54371 43.8762ZM33.3748 37.5525C33.6541 37.6541 37.3239 39.5969 41.5396 41.8699C46.6315 44.6126 49.387 46.1618 49.7172 46.4793C50.7584 47.4697 51.0886 48.9681 50.606 50.403C50.1743 51.6855 49.8442 51.9013 41.3618 56.4473C37.0953 58.7202 33.3874 60.6503 33.1081 60.7265C32.3589 60.9297 31.7367 60.8916 30.9748 60.6122C30.0479 60.2694 29.3241 59.6091 28.8923 58.7329L28.5368 58.0091V49.1205V40.2318L28.8415 39.5588C29.1971 38.7588 30.1494 37.8573 30.924 37.5906C31.6097 37.3366 32.7525 37.3239 33.3748 37.5525Z" fill="#333333"/>
</svg>
