<svg width="34" height="35" viewBox="0 0 34 35" fill="none" xmlns="http://www.w3.org/2000/svg">
<path d="M16.1347 0.0951986C14.5141 0.509234 13.4731 1.73951 13.3548 3.40749C13.2247 5.27656 14.3485 6.8499 16.0993 7.2521L16.7026 7.39406L15.839 7.54784C13.4494 7.95005 11.5212 9.73632 10.8942 12.1022C10.7996 12.4216 10.6931 13.1551 10.6576 13.7111C10.5748 14.8349 10.7168 15.5092 11.0835 15.7103C11.3793 15.8759 22.6174 15.8759 22.9131 15.7103C23.2798 15.5092 23.4218 14.8349 23.339 13.6992C23.2917 13.1196 23.1852 12.398 23.1024 12.0786C22.4991 9.80729 20.6655 8.06834 18.3942 7.59516C17.4715 7.40589 17.2586 7.31125 17.7199 7.31125C17.8737 7.31125 18.2286 7.20478 18.4888 7.08649C20.7601 6.05731 21.3871 3.06443 19.7191 1.24267C18.7964 0.237154 17.3887 -0.21237 16.1347 0.0951986Z" fill="#B3B3B3"/>
<path d="M16.0281 18.5139L15.9927 19.2L10.1015 19.2592L4.19855 19.3183L3.97379 19.6022C3.78451 19.8388 3.74902 20.0754 3.74902 21.2584V22.6306H4.69539H5.64176V21.9445V21.2702H10.8468H16.0518V21.9445V22.6306H16.9982H17.9445V21.9445V21.2702H23.1496H28.3546V21.9445V22.6306H29.3009H30.2473V21.2584C30.2473 20.0754 30.2118 19.8388 30.0226 19.6022L29.7978 19.3183L23.8948 19.2592L18.0037 19.2L17.9682 18.5139L17.9327 17.8396H16.9982H16.0636L16.0281 18.5139Z" fill="#B3B3B3"/>
<path d="M3.58335 24.7128C2.84991 24.8902 1.77342 25.5172 1.25292 26.085C-0.450545 27.9423 -0.415057 30.8523 1.34755 32.6386C3.0865 34.4249 6.17403 34.484 7.97213 32.7569C9.26155 31.5148 9.73473 29.6102 9.19057 27.8831C8.46897 25.5645 5.97292 24.1568 3.58335 24.7128Z" fill="#B3B3B3"/>
<path d="M15.8972 24.7008C13.0817 25.4106 11.5912 28.3561 12.6322 31.1479C12.9989 32.1298 14.1701 33.3009 15.1637 33.6913C16.1693 34.0935 17.8254 34.0935 18.8309 33.6913C19.8246 33.3009 20.9957 32.1298 21.3624 31.1479C22.5336 28.0131 20.5107 24.7836 17.2576 24.6298C16.7607 24.6061 16.1456 24.6416 15.8972 24.7008Z" fill="#B3B3B3"/>
<path d="M27.9521 24.7719C24.486 25.8839 23.4214 30.249 26.0239 32.7569C27.822 34.484 30.9095 34.4249 32.6484 32.6386C34.068 31.1954 34.3992 29.0661 33.5002 27.2325C32.7313 25.6473 31.288 24.7128 29.5018 24.63C28.8393 24.5945 28.3543 24.6418 27.9521 24.7719Z" fill="#B3B3B3"/>
</svg>
