<svg width="101" height="100" viewBox="0 0 101 100" fill="none" xmlns="http://www.w3.org/2000/svg">
<path fill-rule="evenodd" clip-rule="evenodd" d="M18.1958 91.3056L7.44775 77.9159C4.86178 74.6947 3.45825 70.7331 3.45825 66.6559V18.1719C3.45825 12.0645 8.34447 6.99679 14.648 6.56641L64.4961 3.16307C68.1176 2.91583 71.717 3.87841 74.692 5.88969L92.2057 17.731C95.3411 19.8506 97.2083 23.3156 97.2083 27.0133V82.135C97.2083 88.1119 92.4039 93.0603 86.232 93.4403L30.9062 96.8459C25.9812 97.1491 21.2207 95.0741 18.1958 91.3056Z" fill="white"/>
<path d="M35.4835 42.4334V41.7987C35.4835 40.1897 36.7723 38.8553 38.4332 38.7444L50.531 37.9365L67.2613 62.5734V40.9503L62.9551 40.3762V40.075C62.9551 38.4469 64.2732 37.1037 65.9554 37.0175L76.9632 36.4537V38.0378C76.9632 38.7812 76.4101 39.4175 75.6523 39.5456L73.0032 39.9937V75.0115L69.6788 76.1547C66.9013 77.11 63.8095 76.0875 62.2195 73.6884L45.9773 49.1787V72.5719L50.9763 73.5284L50.907 73.9922C50.6885 75.4447 49.4345 76.5434 47.9176 76.6109L35.4835 77.1644C35.3192 75.6022 36.4898 74.205 38.1048 74.0353L39.7404 73.8634V42.6725L35.4835 42.4334Z" fill="black"/>
<path fill-rule="evenodd" clip-rule="evenodd" d="M64.9423 9.27113L15.0941 12.6745C12.1082 12.8784 9.7937 15.2789 9.7937 18.1718V66.6559C9.7937 69.374 10.7294 72.0149 12.4534 74.1628L23.2014 87.5521C24.9391 89.7168 27.6739 90.909 30.5031 90.7349L85.8289 87.3293C88.6645 87.1546 90.872 84.8809 90.872 82.1349V27.0133C90.872 25.3143 90.0142 23.7223 88.5736 22.7484L71.0598 10.9071C69.2748 9.70035 67.1151 9.12279 64.9423 9.27113ZM17.566 18.9281C16.8727 18.4148 17.2026 17.3454 18.0736 17.2829L65.2776 13.8972C66.7817 13.7893 68.2761 14.2034 69.4923 15.0652L78.9636 21.7754C79.323 22.0301 79.1545 22.58 78.7092 22.6043L28.7204 25.3229C27.2075 25.4052 25.7143 24.9608 24.5114 24.0703L17.566 18.9281ZM26.3757 33.8459C26.3757 32.2218 27.6877 30.8805 29.3654 30.7891L82.2176 27.9107C83.853 27.8217 85.2292 29.0791 85.2292 30.6619V78.3915C85.2292 80.0124 83.922 81.3524 82.2476 81.4477L29.7298 84.4359C27.9101 84.5396 26.3757 83.1412 26.3757 81.3796V33.8459Z" fill="black"/>
</svg>
