<svg width="35" height="38" viewBox="0 0 35 38" fill="none" xmlns="http://www.w3.org/2000/svg">
<path d="M15.5578 0.167835C12.2293 0.762215 9.28716 2.3076 6.93936 4.67025C3.75944 7.89475 2.22892 11.6691 2.22892 16.3349V17.9249L1.11446 20.9116C0.505221 22.5462 0 24.0321 0 24.1956C0 24.359 0.163454 24.6562 0.371486 24.8494C0.698394 25.1912 0.832129 25.2209 2.21406 25.2209H3.68514L3.74458 27.108C3.81888 29.3667 4.08635 30.1393 5.17109 31.2092C6.10723 32.1305 7.0731 32.5317 8.51447 32.6209L9.65864 32.6952V34.9835C9.65864 37.2124 9.6735 37.2867 10.0301 37.6285L10.3868 38H18.2028H26.0189L26.3755 37.6285L26.747 37.2719V33.2153V29.1586L27.4603 28.7128C27.8466 28.4751 28.649 27.8064 29.2583 27.2269C33.0771 23.6012 34.8008 18.5638 33.9538 13.3927C33.404 10.0345 31.8884 7.06262 29.4663 4.67025C27.3265 2.56021 25.0085 1.208 22.2149 0.479885C20.3723 -0.010479 17.3558 -0.144215 15.5578 0.167835ZM20.9518 4.80399C24.2209 5.76985 26.8808 8.44455 27.8763 11.7731C28.2478 13.0064 28.2478 15.8891 27.8763 17.1225C26.8659 20.4807 24.2358 23.1108 20.8775 24.1213C19.6442 24.4928 16.7615 24.4928 15.5281 24.1213C12.1699 23.1108 9.53977 20.4807 8.52933 17.1225C8.15784 15.8891 8.15784 13.0064 8.52933 11.7731C9.65864 7.99877 12.9277 5.10117 16.7169 4.50679C17.5639 4.37306 20.1346 4.55137 20.9518 4.80399Z" fill="#4C4C4C"/>
<path d="M16.3897 6.8545C12.9572 7.68663 10.4014 10.926 10.4014 14.4477C10.4014 18.0139 12.868 21.1196 16.4194 22.026C21.1745 23.2296 26.0038 19.4107 26.0038 14.4477C26.0038 9.48462 21.2042 5.69546 16.3897 6.8545ZM15.7062 10.3762C16.6126 10.718 17.2367 11.6095 17.2813 12.62C17.2962 13.1103 17.2219 13.2886 16.8949 13.571C16.6572 13.7641 16.36 13.9276 16.2114 13.9276C15.7805 13.9276 15.201 13.3778 15.1118 12.8874C14.9781 12.2782 14.4729 12.2633 14.3391 12.8874C14.2351 13.3629 13.6407 13.9276 13.2247 13.9276C13.0761 13.9276 12.7789 13.779 12.556 13.6007C12.1845 13.3184 12.1548 13.2143 12.2142 12.5011C12.3628 10.7923 14.0717 9.75209 15.7062 10.3762ZM22.8387 10.4505C23.6114 10.822 24.1166 11.5798 24.1909 12.5011C24.2504 13.2143 24.2207 13.3184 23.8492 13.6007C23.6263 13.779 23.3291 13.9276 23.1805 13.9276C22.7644 13.9276 22.1701 13.3629 22.066 12.8874C21.9323 12.2633 21.4271 12.2782 21.2933 12.8874C21.2042 13.3778 20.6247 13.9276 20.1937 13.9276C20.0452 13.9276 19.748 13.7641 19.5102 13.571C19.1833 13.2886 19.109 13.1103 19.1239 12.62C19.1982 10.8071 21.1596 9.66293 22.8387 10.4505ZM16.6721 17.1521C17.3705 17.8208 17.4745 17.8654 18.2026 17.8654C18.9307 17.8654 19.0347 17.8208 19.7331 17.1521C20.5801 16.3794 20.8773 16.3051 21.4568 16.7658C22.066 17.2561 21.9917 17.9396 21.219 18.7866C20.3721 19.6931 19.3616 20.1686 18.2026 20.1686C17.0435 20.1686 16.0331 19.6931 15.201 18.7866C14.4134 17.9396 14.3391 17.2561 14.9484 16.7658C15.5279 16.3051 15.8251 16.3794 16.6721 17.1521Z" fill="#4C4C4C"/>
</svg>
