<svg width="34" height="47" viewBox="0 0 34 47" fill="none" xmlns="http://www.w3.org/2000/svg">
<path d="M2.64535 0.266953C2.26992 0.397537 1.63332 0.838257 1.22524 1.23001C-0.0806078 2.53586 0.0010076 1.11575 0.0010076 23.4947C0.0010076 45.8736 -0.0806078 44.4535 1.22524 45.743C2.49844 47.0326 2.23727 46.9999 12.7657 46.9999H22.0372V41.4501V35.8839L22.4452 35.4922L22.837 35.0841H28.4032H33.953V19.365C33.953 1.58912 34.0183 2.51954 32.7288 1.24633C31.4066 -0.0758324 32.2228 -0.01054 16.9117 0.00578308C5.27336 0.00578308 3.2493 0.0547523 2.64535 0.266953ZM17.8911 13.5539C19.099 13.7661 20.0294 14.3048 20.8619 15.2679C21.7107 16.2309 22.0535 17.2756 22.1841 19.316C22.282 20.8993 22.2983 20.9646 22.6738 21.0136C22.9023 21.0462 23.2451 21.1931 23.4573 21.3237C24.2734 21.8624 24.3224 22.1725 24.3224 26.8899V31.2645L23.898 32.1296C23.3757 33.1743 22.4942 33.8598 21.3353 34.1047C20.7803 34.2353 19.0827 34.2842 16.4873 34.2353C12.0801 34.1863 11.8026 34.121 10.7579 33.06C9.72956 32.0153 9.71324 31.9827 9.66427 27.3306C9.63162 24.9964 9.64795 22.8581 9.71324 22.5806C9.8275 21.9114 10.4967 21.2584 11.2639 21.0462L11.8842 20.883L11.9495 18.9569C11.9985 17.2103 12.0474 16.9655 12.4882 16.182C12.7493 15.7086 13.2064 15.0883 13.5002 14.8271C14.398 14.0436 15.1651 13.7172 16.8301 13.3907C16.8791 13.3744 17.3524 13.456 17.8911 13.5539Z" fill="#4C4C4C"/>
<path d="M16.2587 16.3125C15.1487 16.6553 14.6754 17.5367 14.5611 19.4465L14.4795 20.8829H16.9769H19.458L19.3927 19.3486C19.3601 18.108 19.2785 17.7163 19.001 17.3571C18.2991 16.4104 17.2544 16.0023 16.2587 16.3125Z" fill="#4C4C4C"/>
<path d="M12.4062 27.2327C12.4062 30.7259 12.4226 30.8401 12.7654 31.1666C13.1081 31.4767 13.3203 31.493 16.993 31.493C20.5515 31.493 20.8943 31.4604 21.237 31.1829C21.6288 30.8728 21.6288 30.8564 21.6288 27.298V23.7396L17.0257 23.6906L12.4062 23.658V27.2327Z" fill="#4C4C4C"/>
<path d="M24.8115 41.9723V46.1021L28.8923 42.0213C31.1449 39.785 32.9731 37.9242 32.9731 37.9079C32.9731 37.8752 31.1449 37.8589 28.8923 37.8589H24.8115V41.9723Z" fill="#4C4C4C"/>
</svg>
