<svg width="34" height="32" viewBox="0 0 34 32" fill="none" xmlns="http://www.w3.org/2000/svg">
<path d="M13.5588 1.17921C7.4748 3.30154 6.4608 3.67884 6.23677 3.91465C5.9538 4.22121 5.94201 4.83433 6.22498 5.16447C6.36647 5.32954 7.86389 5.91907 11.0238 7.0156C13.5588 7.8999 15.9287 8.72525 16.3178 8.84316L17.0135 9.06718L21.6236 7.53439C24.1704 6.69725 26.2809 6.0016 26.3163 6.0016C26.3635 6.0016 26.4106 7.32216 26.4342 8.93748C26.4696 11.8616 26.4696 11.8852 26.7526 12.1799C27.1299 12.5808 27.7901 12.6044 28.1557 12.2153C28.4151 11.9441 28.4151 11.8852 28.4151 8.04139C28.4151 4.50419 28.3915 4.11509 28.2146 3.89107C28.0613 3.71421 26.4578 3.13647 22.4843 1.81591C19.4541 0.813703 16.9663 -0.0116444 16.9427 0.000145912C16.9309 0.000145912 15.4099 0.530726 13.5588 1.17921Z" fill="#4C4C4C"/>
<path d="M0.294767 4.88142L0 5.1644V16.2476V27.3309L0.282976 27.661L0.565953 27.9912L5.30581 28.0265L10.0339 28.0619L9.9985 29.0287L9.96313 29.9956L8.21811 30.0545C6.55562 30.1135 6.4495 30.1253 6.23727 30.3965C5.93071 30.7738 5.9543 31.269 6.29623 31.6699L6.5792 32H16.9786H27.378L27.6609 31.6699C28.0029 31.269 28.0265 30.7738 27.7199 30.3965C27.5077 30.1253 27.4016 30.1135 25.7391 30.0545L23.994 29.9956L23.9587 29.0287L23.9233 28.0619L28.6514 28.0265L33.3912 27.9912L33.6742 27.661L33.9572 27.3309V16.2476V5.1644L33.6624 4.88142C33.3912 4.59845 33.3087 4.58666 31.8938 4.58666H30.42V8.38326C30.42 12.1445 30.4082 12.2034 30.137 12.7812C29.2409 14.6677 26.8592 15.0686 25.3264 13.5829L24.9019 13.1703L21.3176 14.5616C16.6367 16.3891 17.3205 16.3773 12.6986 14.5852C10.7649 13.8306 8.97271 13.076 8.72511 12.9109C8.4775 12.7458 8.11199 12.3567 7.93513 12.0502C7.61678 11.5078 7.60499 11.3899 7.54604 9.66844L7.48708 7.86447L6.5792 7.53433C6.08399 7.35747 5.49446 7.09807 5.28223 6.95658C4.72806 6.56749 4.25644 5.87184 4.09137 5.17619L3.94988 4.58666H2.26381C0.636697 4.58666 0.565953 4.59845 0.294767 4.88142ZM9.37359 19.1364C9.96313 19.384 10.0457 19.8202 9.9985 22.3081L9.96313 24.4186L9.63299 24.7016C9.30285 24.9845 9.26748 24.9845 6.94471 24.9845C3.78481 24.9845 4.00883 25.2086 4.00883 22.0722C4.00883 19.5608 4.056 19.325 4.64553 19.0892C5.08179 18.9123 8.91376 18.9477 9.37359 19.1364ZM29.6654 19.3604C30.0309 19.7966 30.0309 20.3154 29.6536 20.6809L29.3706 20.9757H21.011C12.7339 20.9757 12.6396 20.9757 12.3331 20.7281C11.7671 20.2801 11.9911 19.325 12.7339 19.0538C12.8283 19.0185 16.6131 18.9949 21.1407 19.0067L29.3824 19.0302L29.6654 19.3604ZM29.6654 23.3692C30.0309 23.8055 30.0309 24.3243 29.6536 24.6898L29.3706 24.9845H20.9874H12.6042L12.3213 24.6898C11.8025 24.1828 12.0147 23.3338 12.7339 23.0627C12.8283 23.0273 16.6131 23.0037 21.1407 23.0155L29.3824 23.0391L29.6654 23.3692Z" fill="#4C4C4C"/>
<path d="M6.01367 21.9779V22.9801H7.01588H8.01809V21.9779V20.9757H7.01588H6.01367V21.9779Z" fill="#4C4C4C"/>
<path d="M9.45611 9.70385C9.4797 10.4349 9.56223 10.8947 9.69193 11.0834C9.82162 11.2956 10.5409 11.6257 12.5689 12.4039C14.0545 12.9817 15.658 13.583 16.1296 13.7598L17.0022 14.0664L17.8393 13.7598C18.3109 13.583 19.9145 12.9817 21.4001 12.4039C23.9704 11.4135 24.1237 11.3428 24.3124 10.9537C24.5246 10.5292 24.6189 8.71344 24.4303 8.71344C24.3831 8.71344 22.8385 9.22044 20.9874 9.83355C18.3227 10.7179 17.4974 10.9537 16.9668 10.9537C16.4244 10.9537 15.658 10.7296 12.9226 9.7746C11.0714 9.12611 9.51507 8.59553 9.4797 8.59553C9.43253 8.59553 9.42074 9.09074 9.45611 9.70385Z" fill="#4C4C4C"/>
</svg>
