<svg width="34" height="35" viewBox="0 0 34 35" fill="none" xmlns="http://www.w3.org/2000/svg">
<path d="M27.9125 0.147824C27.3095 0.372454 26.5884 1.04634 26.281 1.67294C25.9499 2.33501 25.9618 3.62367 26.3046 4.27392L26.5529 4.75865L24.1293 7.39509C21.7529 9.97242 21.6938 10.0315 21.3155 9.9606C20.9135 9.87784 20.2987 9.99606 19.6485 10.2562C19.2938 10.398 19.2583 10.3744 17.615 9.14484L15.948 7.87982L15.9598 7.0877C15.9598 6.59115 15.8889 6.0946 15.7588 5.77539C15.5106 5.16061 14.5884 4.30939 13.95 4.12022C11.8574 3.49362 9.83571 5.11332 10.0603 7.24139L10.1195 7.86799L8.45247 9.12119C7.17563 10.0788 6.71454 10.3507 6.5372 10.3035C5.39041 9.92513 5.10667 9.88966 4.50371 10.0197C3.07318 10.3153 2.08008 11.4975 2.08008 12.9281C2.08008 16.0847 6.31257 17.0423 7.71947 14.2049C7.88498 13.8621 7.95592 13.4837 7.95592 12.8453L7.96774 11.9704L9.65837 10.7054L11.3372 9.42858L11.8337 9.66503C12.4722 9.94877 13.5835 9.9606 14.2219 9.66503L14.6948 9.46405L16.4091 10.7527C17.3549 11.4621 18.0997 12.1005 18.0879 12.1714C17.9815 12.5261 18.0643 13.6729 18.2179 14.0394C19.211 16.4157 22.5332 16.5221 23.68 14.2049C24.011 13.5428 23.9992 12.2542 23.6564 11.6039L23.4081 11.1192L25.8081 8.51824L28.2081 5.90544H28.8938C30.1233 5.90544 31.0928 5.31431 31.6012 4.27392C32.5706 2.31136 31.3056 0.136002 29.1184 0.00595284C28.6691 -0.0176926 28.2199 0.0295982 27.9125 0.147824Z" fill="#4C4C4C"/>
<path d="M26.3272 12.2424L25.9844 12.5853V21.2867V29.9882H28.9991H32.0139V21.4759C32.0139 12.1951 32.0139 12.2661 31.3637 12.0178C31.1863 11.9468 30.0632 11.8996 28.8691 11.8996H26.6701L26.3272 12.2424Z" fill="#4C4C4C"/>
<path d="M10.5564 16.0611C10.0244 16.3685 10.0362 16.2385 10.0244 23.2729V29.9882H13.0392H16.0539L16.0303 23.2374L15.9948 16.4867L15.6638 16.203C15.3328 15.9192 15.2973 15.9192 13.0628 15.9192C11.5732 15.9311 10.7101 15.9784 10.5564 16.0611Z" fill="#4C4C4C"/>
<path d="M18.2883 20.2463L18.0045 20.5537L17.9691 25.2709L17.9336 29.9882H20.9602H23.9749V25.2591V20.5182L23.6794 20.2345C23.3956 19.9389 23.3838 19.9389 20.9838 19.9389H18.572L18.2883 20.2463Z" fill="#4C4C4C"/>
<path d="M2.32831 22.2562L2.04457 22.5636L2.0091 26.2759L1.97363 29.9882H5.00022H8.01499V26.264V22.5281L7.71942 22.2443C7.43568 21.9488 7.42386 21.9488 5.02387 21.9488H2.61205L2.32831 22.2562Z" fill="#4C4C4C"/>
<path d="M0.318291 32.3408C-0.178259 32.8492 -0.0836777 33.594 0.531098 33.8778C0.933067 34.0669 33.0669 34.0669 33.4689 33.8778C34.0837 33.594 34.1783 32.8492 33.6817 32.3408L33.3389 31.998H17H0.661147L0.318291 32.3408Z" fill="#4C4C4C"/>
</svg>
