<svg width="34" height="41" viewBox="0 0 34 41" fill="none" xmlns="http://www.w3.org/2000/svg">
<path d="M9.96276 0.208994C8.08159 0.613098 6.47911 1.50491 5.11352 2.88444C4.16596 3.84592 3.73399 4.45905 3.19054 5.61562C2.57742 6.96727 2.3684 7.9845 2.27086 10.1583C2.18725 12.1091 2.17332 12.1788 1.72741 12.9173C1.47659 13.3354 1.12822 14.06 0.947072 14.5338C0.640511 15.3838 0.626576 15.5231 0.584773 22.0724L0.542969 28.761L1.76921 27.5765C3.56678 25.8487 4.83483 25.0544 6.99469 24.3158C7.55207 24.1347 7.99798 23.8978 7.97011 23.8142C7.95618 23.7306 7.77503 23.4519 7.59388 23.215C7.1201 22.6019 6.33976 20.874 6.04714 19.7871C5.82418 19.0207 5.79631 18.31 5.78238 15.1469V11.3985L6.11681 11.1337C6.29796 10.9804 6.66026 10.869 6.95288 10.869C8.06765 10.855 9.11275 10.0608 9.26603 9.0714C9.40537 8.31893 9.62833 7.80335 9.90702 7.66401C10.0464 7.5804 10.8546 7.52466 11.7046 7.52466C12.6939 7.52466 13.4046 7.45498 13.6972 7.32957C13.9481 7.23203 14.5472 6.71645 15.021 6.18694L15.885 5.22545V2.60575V-2.47955e-05L13.3489 0.0139103C11.8021 0.0139103 10.4644 0.097517 9.96276 0.208994Z" fill="#4C4C4C"/>
<path d="M18.2539 3.31643C18.2539 6.57712 18.2539 6.6468 18.5744 6.93942C19.076 7.4132 19.5777 7.52468 21.2498 7.52468C23.1589 7.52468 23.3818 7.65009 23.563 8.75092C23.6187 9.15503 23.7999 9.67061 23.9671 9.89356C24.5245 10.66 24.9425 10.7854 27.2278 10.8411L29.2901 10.8969L29.2344 8.95994C29.1786 7.34353 29.1229 6.88369 28.8163 6.01974C28.0221 3.79021 26.5032 2.02051 24.5384 0.98935C23.0753 0.222947 22.0302 -5.72205e-06 19.9679 -5.72205e-06H18.2539V3.31643Z" fill="#4C4C4C"/>
<path d="M15.1894 9.21076C14.5205 9.64274 13.4197 9.89356 12.2353 9.89356C11.5803 9.89356 11.5664 9.90749 11.2738 10.5067C10.7164 11.6911 9.61555 12.6387 8.3057 13.0288C8.06881 13.0985 8.05487 13.2657 8.12455 15.9969C8.19422 19.0904 8.24996 19.4527 9.0303 20.9855C10.2008 23.3126 12.6812 25.1101 15.1755 25.4446L15.8861 25.5421V17.1535C15.8861 12.5551 15.8722 8.77879 15.8583 8.79273C15.8304 8.79273 15.5378 8.98781 15.1894 9.21076ZM13.4476 14.492C13.8656 14.6453 14.2 15.3281 14.1025 15.8297C14.0189 16.2756 13.4336 16.7215 12.932 16.7215C12.3746 16.7215 11.8451 16.1641 11.8451 15.5649C11.8451 15.0633 12.0262 14.7567 12.4721 14.5198C12.8205 14.3248 12.9877 14.3248 13.4476 14.492Z" fill="#4C4C4C"/>
<path d="M18.2539 17.474V25.361H18.6859C18.9228 25.361 19.5638 25.2077 20.1211 25.0265C23.3261 23.9396 25.7786 21.306 26.6286 18.0174C26.8237 17.2232 26.8934 16.4846 26.8934 15.0215V13.0985H25.8483C24.4687 13.0985 23.4794 12.7223 22.6015 11.8723C22.2392 11.51 21.8072 10.9247 21.6679 10.5764L21.4031 9.93536L20.1351 9.83782C19.4523 9.79601 18.7416 9.71241 18.5744 9.6706L18.2539 9.587V17.474ZM21.5843 14.5616C22.6015 15.0772 22.1835 16.7215 21.0408 16.7215C19.8564 16.7215 19.508 15.0912 20.5531 14.5198C20.9293 14.3108 21.1244 14.3108 21.5843 14.5616Z" fill="#4C4C4C"/>
<path d="M29.2627 15.1328V17.028L29.7086 16.9443C30.475 16.7911 31.2135 15.8853 31.2135 15.1189C31.2135 14.1992 30.3775 13.2377 29.5832 13.2377C29.2627 13.2377 29.2627 13.2656 29.2627 15.1328Z" fill="#4C4C4C"/>
<path d="M22.4343 26.5593C21.4171 27.0888 20.2326 27.479 18.6441 27.7995L18.2539 27.8691V34.0004V40.1316H25.7229H33.1918L33.5959 39.7275L34 39.3234V35.2963C34 32.3422 33.9443 31.088 33.8049 30.5585C33.1639 28.1757 31.2828 26.4478 28.8999 26.0576C28.4401 25.974 27.0745 25.9322 25.8483 25.9322L23.6187 25.9462L22.4343 26.5593Z" fill="#4C4C4C"/>
<path d="M9.12761 26.1551C8.97433 26.183 8.6399 26.2805 8.37514 26.3641L7.90137 26.5035L7.98497 27.3953C8.12432 29.1232 9.22515 30.6142 10.8137 31.2134C11.4547 31.4503 11.9006 31.4921 13.74 31.4921H15.8998L15.858 29.7224L15.8162 27.9387L15.1474 27.8412C14.0744 27.6879 12.5695 27.1863 11.385 26.601C10.3678 26.0854 9.86615 25.9879 9.12761 26.1551Z" fill="#4C4C4C"/>
<path d="M4.4312 28.2872C2.22954 29.9454 0.613122 32.6766 0.153281 35.5332C0.069673 36.0348 0 37.0799 0 37.8742C0 39.2816 0.0139346 39.3234 0.404103 39.7275L0.808207 40.1316H8.34683H15.8854V36.9963V33.861H13.7813C11.287 33.861 10.1305 33.6381 8.95995 32.9413C7.13452 31.8405 6.13122 30.3495 5.64351 27.9667C5.60171 27.7577 5.5181 27.5905 5.46236 27.5905C5.40662 27.5905 4.94678 27.9109 4.4312 28.2872Z" fill="#4C4C4C"/>
</svg>
