<svg width="34" height="34" viewBox="0 0 34 34" fill="none" xmlns="http://www.w3.org/2000/svg">
<path d="M0.531336 0.124344C0.389647 0.183384 0.212535 0.372303 0.14169 0.525799C-0.0472299 0.93906 -0.0472299 33.0318 0.14169 33.4332C0.212535 33.5985 0.401454 33.7875 0.566759 33.8583C0.980021 34.0472 33.0609 34.0472 33.4742 33.8583C33.8166 33.693 34.0764 33.1617 33.9701 32.772C33.9229 32.5477 4.53407 3.00537 2.0545 0.667488C1.29882 -0.0291519 1.03906 -0.123611 0.531336 0.124344ZM12.7993 18.5558C13.4015 19.0163 14.1099 20.3033 14.0037 20.752C13.8974 21.2243 13.5314 21.5195 13.0591 21.5195C12.5868 21.5195 12.2444 21.2479 11.9256 20.6103C11.7957 20.3742 11.6304 20.1734 11.5477 20.1734C11.4651 20.1734 11.2643 20.4214 11.1108 20.7166C10.7566 21.3778 10.2371 21.6612 9.74117 21.4723C8.98549 21.1771 8.92645 20.5749 9.51683 19.5122C10.0954 18.485 10.6622 18.1426 11.654 18.1898C12.2207 18.2252 12.4687 18.3079 12.7993 18.5558ZM8.66669 23.2434C9.13899 23.6212 9.1626 23.9991 8.76115 24.7784C8.56042 25.1562 8.44235 25.4868 8.47777 25.534C8.525 25.5695 8.86742 25.6049 9.24526 25.6049C9.82382 25.6049 9.98913 25.6521 10.2253 25.9001C10.7212 26.3842 10.5913 27.1399 9.96551 27.4705C9.64671 27.6476 8.59584 27.6476 7.98185 27.4823C7.02545 27.2107 6.25796 26.0181 6.44688 25.0972C6.57677 24.5186 7.32064 23.2434 7.60402 23.1253C8.02909 22.96 8.34789 22.9954 8.66669 23.2434ZM15.6213 23.2316C15.7748 23.3615 16.0818 23.8101 16.2943 24.2352C16.6367 24.8846 16.684 25.0972 16.6367 25.5931C16.5069 26.9155 15.6803 27.5531 14.0863 27.5531C13.1535 27.5531 13.0827 27.5413 12.8111 27.2225C12.4333 26.7738 12.4451 26.3724 12.8702 25.9473C13.1771 25.6403 13.2952 25.6049 13.9328 25.6049C14.7593 25.6049 14.7948 25.5458 14.3579 24.8374C13.9801 24.2234 13.9801 23.6685 14.3579 23.3024C14.7003 22.9482 15.2198 22.9246 15.6213 23.2316Z" fill="#B3B3B3"/>
</svg>
