<svg width="21" height="20" viewBox="0 0 21 20" fill="none" xmlns="http://www.w3.org/2000/svg">
<path d="M9.65331 0.138638C9.13086 0.408024 8.92678 0.718227 7.76759 3.04476C6.92678 4.72639 6.53494 5.4121 6.40433 5.46924C6.30637 5.51822 5.11454 5.71414 3.75944 5.91006C2.30638 6.1223 1.17985 6.32639 1.00842 6.40802C0.608417 6.60394 0.183928 7.11006 0.0614791 7.55904C-0.0528066 7.9672 -0.00382701 8.53863 0.175765 8.88149C0.241071 9.00394 1.13903 9.94271 2.17576 10.9713C3.93903 12.7182 4.06148 12.8652 4.06148 13.1345C4.06148 13.2978 3.89005 14.3835 3.68597 15.5509C3.24515 18.0243 3.22066 18.506 3.47372 18.9958C3.69413 19.4203 4.1676 19.8121 4.59209 19.9264C5.26964 20.1141 5.53903 20.0162 7.96351 18.7509C9.22882 18.0896 10.3309 17.5509 10.4288 17.5509C10.5268 17.5509 11.6288 18.0896 12.8941 18.7509C15.3186 20.0162 15.588 20.1141 16.2655 19.9264C16.69 19.8121 17.1635 19.4203 17.3839 18.9958C17.637 18.506 17.6125 18.0243 17.1717 15.5509C16.9676 14.3835 16.7962 13.2978 16.7962 13.1345C16.7962 12.8652 16.9186 12.7182 18.6819 10.9713C19.7186 9.94271 20.6166 9.00394 20.6819 8.88149C20.8615 8.53863 20.9104 7.9672 20.7962 7.55904C20.6737 7.11006 20.2492 6.60394 19.8492 6.40802C19.6778 6.32639 18.5513 6.1223 17.0982 5.91006C15.7431 5.71414 14.5513 5.51822 14.4533 5.46924C14.3227 5.4121 13.939 4.74271 13.1145 3.08557C12.486 1.81211 11.8656 0.669249 11.7513 0.546801C11.3921 0.163126 10.9839 -0.000139236 10.4125 -0.000139236C10.1105 0.00802422 9.80025 0.0570049 9.65331 0.138638ZM8.95127 8.41618C9.3431 8.78353 9.35943 9.28965 8.98392 9.66516C8.69821 9.95904 8.1431 9.9672 7.85739 9.68149C7.49004 9.31414 7.49004 8.80802 7.85739 8.44067C8.11862 8.17945 8.68188 8.16312 8.95127 8.41618ZM13.0002 8.44067C13.5553 8.99577 13.2207 9.8774 12.4451 9.8774C11.6615 9.8774 11.3186 9.0121 11.8737 8.457C12.1594 8.16312 12.7145 8.15496 13.0002 8.44067ZM8.45331 12.0815C9.15535 12.555 9.68596 12.7345 10.4288 12.7345C11.1717 12.7345 11.7023 12.555 12.4043 12.0815C13.0737 11.6243 13.286 11.5835 13.5717 11.8774C13.9717 12.2692 13.8166 12.6121 12.9758 13.1754C11.3839 14.2284 9.47372 14.2284 7.88188 13.1754C7.04107 12.6121 6.88596 12.2692 7.28596 11.8774C7.57168 11.5835 7.78392 11.6243 8.45331 12.0815Z" fill="#999999"/>
</svg>
