<svg width="35" height="47" viewBox="0 0 35 47" fill="none" xmlns="http://www.w3.org/2000/svg">
<path d="M26.7664 0.377979C25.866 1.33356 26.4908 2.58317 27.9793 2.82207C28.402 2.89557 28.7511 3.00583 28.7511 3.07934C28.7511 3.15285 22.9441 6.79141 15.8507 11.165C8.73899 15.5387 2.78497 19.2875 2.61959 19.4713C2.17855 19.9674 2.19692 20.9414 2.63796 21.3457C3.44653 22.0807 3.50166 22.044 17.1003 13.6459C24.2672 9.21712 30.1845 5.57856 30.2396 5.5418C30.3131 5.50505 30.2947 5.7807 30.2029 6.16661C29.9088 7.41622 30.0007 7.98589 30.5153 8.39018C31.3055 8.9966 32.114 8.83121 32.5551 7.94914C32.6469 7.747 33.0145 6.38713 33.3453 4.95375C34.1906 1.38869 34.2825 1.55408 30.7725 0.653627C27.575 -0.154943 27.281 -0.173319 26.7664 0.377979Z" fill="#4C4C4C"/>
<path d="M26.6193 15.0242C25.8291 15.3366 25.627 15.9063 25.627 17.7255V19.4346H30.313H34.999V17.7072C34.999 16.7516 34.9439 15.8328 34.8888 15.6674C34.6131 14.9691 33.8597 14.8404 30.3681 14.8588C28.5121 14.8588 26.8214 14.9323 26.6193 15.0242Z" fill="#4C4C4C"/>
<path d="M25.627 24.2125V26.2339H30.313H34.999V24.2125V22.191H30.313H25.627V24.2125Z" fill="#4C4C4C"/>
<path d="M13.7561 28.4576C13.4621 28.77 13.3886 29.1927 13.3518 30.8466L13.2783 32.8496H17.9827H22.6871V30.8282C22.6871 27.9247 22.9444 28.0717 18.0379 28.0717C14.2707 28.0717 14.0869 28.0901 13.7561 28.4576Z" fill="#4C4C4C"/>
<path d="M25.627 30.9201V32.8496H30.313H34.999V30.9201V28.9905H30.313H25.627V30.9201Z" fill="#4C4C4C"/>
<path d="M1.609 35.3116C1.11283 35.7342 1.09446 35.8261 1.03933 37.7005L0.96582 39.6484H5.78049H10.5952L10.5217 37.7005C10.4665 35.8261 10.4481 35.7342 9.95198 35.3116C9.43743 34.8705 9.3823 34.8705 5.78049 34.8705C2.17868 34.8705 2.12355 34.8705 1.609 35.3116Z" fill="#4C4C4C"/>
<path d="M13.4431 35.7342C13.3696 35.7894 13.3145 36.7082 13.3145 37.7556V39.6484H18.0005H22.6865V37.627V35.6056H18.1291C15.6115 35.6056 13.4982 35.6607 13.4431 35.7342Z" fill="#4C4C4C"/>
<path d="M25.627 37.627V39.6484H30.313H34.999V37.627V35.6056H30.313H25.627V37.627Z" fill="#4C4C4C"/>
<path d="M1.13171 42.5156C0.929567 42.7178 0.984697 45.4559 1.18684 46.0072C1.55437 46.9444 1.71976 46.9811 5.79937 46.9995C9.32767 46.9995 9.60332 46.9811 9.97085 46.632C10.4486 46.1726 10.5957 45.4375 10.5222 43.7836L10.467 42.4972L5.8545 42.4421C3.31853 42.4237 1.20522 42.4605 1.13171 42.5156Z" fill="#4C4C4C"/>
<path d="M13.3518 44.3532C13.4253 47.1097 13.2416 46.9994 18.0011 46.9994C21.4927 46.9994 21.7499 46.981 22.2093 46.6135C22.6688 46.246 22.6871 46.1724 22.6871 44.3164V42.4052H17.9827H13.2783L13.3518 44.3532Z" fill="#4C4C4C"/>
<path d="M25.627 44.2428C25.627 45.9702 25.6637 46.1356 26.0864 46.5399C26.5274 46.9993 26.5458 46.9993 30.2762 46.9993C35.1277 46.9993 34.999 47.0728 34.999 44.3163V42.4052H30.313H25.627V44.2428Z" fill="#4C4C4C"/>
</svg>
