<svg width="34" height="25" viewBox="0 0 34 25" fill="none" xmlns="http://www.w3.org/2000/svg">
<path d="M8.41325 0.298111C8.14717 0.542898 7.89174 1.14954 6.95517 3.73577C6.33788 5.45992 5.42259 8.00357 4.92237 9.37651C4.4328 10.7494 3.70908 12.729 3.33658 13.7614C2.96408 14.8044 2.33615 16.5285 1.95301 17.6035C-0.239432 23.6486 -0.101075 23.2016 0.111783 23.6806C0.35657 24.2127 0.729072 24.2979 2.62351 24.2553C4.21994 24.2234 4.36894 24.2021 4.5818 23.9999C4.69887 23.8721 5.20973 22.7014 5.69931 21.3923C6.19952 20.0833 6.6891 18.9445 6.78488 18.8806C6.9126 18.7742 7.84917 18.7423 10.6376 18.7423C14.0646 18.7423 14.3413 18.7529 14.501 18.9338C14.6713 19.1148 14.9373 19.8066 15.9591 22.6163C16.5764 24.3085 16.5125 24.2766 18.8646 24.2766H20.6632L21.0251 23.9147C21.2273 23.7125 21.3869 23.4464 21.3869 23.3187C21.3869 23.0952 20.3333 20.1791 15.2247 6.29007C13.9688 2.89498 13.0003 0.404541 12.8726 0.276825C12.6704 0.0852528 12.5001 0.0639687 10.7015 0.0320396L8.74318 0.000110626L8.41325 0.298111ZM11.8403 11.2284C12.862 13.7507 12.9045 13.8785 12.713 14.0168C12.4256 14.2297 8.63675 14.2297 8.34939 14.0275C8.16846 13.8891 8.21103 13.7507 9.14761 11.388C10.3396 8.38672 10.2758 8.50379 10.5525 8.54636C10.7228 8.56765 10.9675 9.07851 11.8403 11.2284Z" fill="#B3B3B3"/>
<path d="M32.3401 12.7715C32.0847 13.0269 32.0315 13.1759 32.0315 13.5697V14.0593L31.3716 13.6335C30.4138 13.0056 29.5304 12.7608 28.3065 12.7608C27.0187 12.7608 26.146 13.0269 25.071 13.74C23.3788 14.8788 22.538 16.4326 22.5167 18.4229C22.5061 20.1789 23.134 21.6157 24.4005 22.7439C26.4014 24.5319 29.4346 24.7554 31.4887 23.2867L32.0315 22.8929V23.2547C32.0315 23.4889 32.1273 23.7337 32.2869 23.9252C32.6275 24.319 33.3831 24.351 33.7556 23.9785L34.0004 23.7337V18.359V12.9737L33.7024 12.7183C33.2767 12.3564 32.7446 12.3777 32.3401 12.7715ZM29.9029 15.1448C31.9144 16.0814 32.6275 18.6783 31.3823 20.5408C30.6373 21.6583 29.6049 22.2011 28.2533 22.2011C27.1251 22.1904 26.2843 21.8286 25.5393 21.0091C24.8688 20.2747 24.5815 19.5191 24.5815 18.4761C24.5815 16.8051 25.5393 15.4535 27.0613 14.9533C27.785 14.7191 29.1898 14.8149 29.9029 15.1448Z" fill="#B3B3B3"/>
</svg>
