<svg width="89" height="89" viewBox="0 0 89 89" fill="none" xmlns="http://www.w3.org/2000/svg">
<path d="M42.9758 0.213568C41.966 0.629879 41.5132 2.36451 41.5132 6.04192C41.5132 10.1356 42.0008 11.6274 43.4286 11.9744C46.1448 12.6335 47.0851 11.0377 47.0851 5.86846C47.0851 1.25435 46.4234 -0.0986652 44.1947 0.0054121C43.7768 0.0054121 43.2196 0.10949 42.9758 0.213568Z" fill="#4C4C4C"/>
<path d="M21.9074 5.93795C21.1413 6.52772 20.5841 8.15827 20.8627 8.88682C21.211 9.82352 24.4844 15.3396 25.0764 15.9988C25.8077 16.8661 28.0016 16.8314 28.8025 15.9294C29.8473 14.7499 29.5687 13.4662 27.4444 9.82352C25.2505 6.04203 24.763 5.52164 23.4049 5.52164C22.9173 5.52164 22.2208 5.72979 21.9074 5.93795Z" fill="#4C4C4C"/>
<path d="M63.7308 5.93785C62.7209 6.73578 59.1689 13.1886 59.1689 14.2294C59.1689 15.6865 60.1788 16.6232 61.711 16.6232C63.2433 16.6232 63.487 16.3803 65.8202 12.3907C68.0141 8.60918 68.2231 7.49902 66.9346 6.21539C66.1336 5.41746 64.5666 5.31339 63.7308 5.93785Z" fill="#4C4C4C"/>
<path d="M43.9509 18.115C42.0007 19.1558 40.8167 21.2374 40.8167 23.6659V25.4005L40.0158 23.9087C39.1104 22.1741 36.8816 20.7864 35.036 20.7864C31.5884 20.7864 28.9766 23.5965 28.9766 27.378V28.5922L28.4195 27.5514C27.5837 25.9556 26.922 25.3658 25.2853 24.7413C23.3352 24.0128 21.3154 24.2556 19.7483 25.4699C17.4151 27.2045 17.3107 27.6902 17.3107 36.398C17.3107 45.1059 17.4151 45.5916 19.7483 47.3262C21.3154 48.5404 23.3352 48.7833 25.2853 48.0547C26.922 47.4303 27.5837 46.8405 28.4195 45.2793L28.9418 44.2733L29.1856 45.5916C29.499 47.2568 31.4143 49.4078 33.0162 49.9281C33.7127 50.171 34.3047 50.2751 34.4092 50.171C34.4788 50.1016 34.235 49.3384 33.852 48.5058C32.7724 46.0773 32.8769 42.3305 34.1306 39.6938C35.2798 37.3347 37.3344 35.2879 39.7372 34.1777C41.2694 33.4839 41.9311 33.4492 52.9702 33.3451L64.6014 33.241L64.4273 29.182C64.2183 24.6026 63.8353 23.4577 61.8851 22.0006C60.3181 20.7864 58.2983 20.5435 56.3482 21.2721C54.7114 21.8965 54.0498 22.4863 53.214 24.0822L52.6568 25.1229V23.9087C52.6568 21.8965 52.03 20.3007 50.846 19.1558C48.7566 17.1437 46.4582 16.7967 43.9509 18.115Z" fill="#4C4C4C"/>
<path d="M6.41077 21.584C5.40088 22.6595 5.40088 24.29 6.4456 25.192C7.66443 26.3369 13.4452 29.4592 14.281 29.4592C15.3257 29.4592 16.7883 27.9674 16.7883 26.9267C16.7883 26.441 16.5097 25.7471 16.1963 25.3655C15.2908 24.3247 8.95291 20.7861 7.97784 20.7861C7.52514 20.7861 6.82866 21.133 6.41077 21.584Z" fill="#4C4C4C"/>
<path d="M76.0932 22.8676C72.5412 24.9492 71.8099 25.643 71.8099 27.0307C71.8099 28.0021 73.3073 29.4592 74.3172 29.4592C75.2226 29.4592 81.8391 25.8859 82.5356 25.0186C83.1973 24.1513 83.058 22.2779 82.257 21.4799C81.1427 20.3698 79.889 20.6473 76.0932 22.8676Z" fill="#4C4C4C"/>
<path d="M41.3391 39.2775C39.2845 40.4223 38.3791 41.9835 38.3791 44.3773C38.3791 46.7711 39.2845 48.3323 41.3391 49.4771C42.6624 50.2403 43.0803 50.275 50.5674 50.275H58.4027L56.5571 51.3505C55.3383 52.0444 54.3632 52.9464 53.7015 53.9871C52.6916 55.583 52.5523 55.9993 52.1345 59.3992C51.7862 62.1746 49.5923 63.3195 47.8163 61.6889C47.085 60.995 47.0154 60.6828 47.1547 58.2196L47.2591 55.4789H44.9608C43.7071 55.4789 41.9311 55.2708 41.0605 54.9932C39.7024 54.5769 39.2497 54.5769 38.1353 54.9932C35.4887 55.9299 31.4491 55.3402 28.9418 53.6402C27.8623 52.9117 27.6185 52.877 26.3649 53.2586C24.3102 53.8831 21.7333 53.8137 19.5742 53.0504C18.5295 52.6688 17.5196 52.3913 17.3455 52.3566C17.1714 52.3566 17.1365 55.5483 17.241 59.538C17.4151 67.4826 17.7634 69.2866 19.6439 72.2354C20.2359 73.1375 21.4547 74.5598 22.3949 75.3925L24.1013 76.9189V81.429C24.1013 86.0778 24.3799 87.5349 25.4246 88.2981C26.2952 88.9573 62.303 88.9573 63.1736 88.2981C64.2183 87.5349 64.4969 86.0778 64.4969 81.429V76.9189L66.064 75.5312C68.1534 73.6925 69.5115 71.6804 70.4518 68.9743C71.1831 66.9275 71.2527 66.0255 71.392 57.0401C71.4617 50.8301 71.392 46.5629 71.1483 45.2446C70.6259 42.5039 69.3374 40.6652 66.9694 39.451L65.1237 38.4796H53.9105C42.9758 38.4796 42.6972 38.5143 41.3391 39.2775Z" fill="#4C4C4C"/>
<path d="M1.048 42.0876C0.177404 42.7468 -0.240482 44.0651 0.14258 45.0365C0.699761 46.5977 1.36141 46.7711 5.99298 46.7711C10.6245 46.7711 11.2862 46.5977 11.8434 45.0365C12.2264 44.0651 11.8086 42.7468 10.938 42.0876C10.1022 41.4285 1.88377 41.4285 1.048 42.0876Z" fill="#4C4C4C"/>
<path d="M77.7996 41.8446C77.5559 41.9487 77.138 42.4691 76.8246 43.0589C76.3719 43.9262 76.3719 44.2731 76.7201 45.1057C76.929 45.6955 77.4166 46.2853 77.7648 46.4587C78.5658 46.9097 86.6449 46.9097 87.4807 46.4587C88.4905 45.9037 88.9433 44.1343 88.3513 42.9895C88.0727 42.4691 87.5851 41.9487 87.3065 41.8099C86.6101 41.5671 78.4613 41.5671 77.7996 41.8446Z" fill="#4C4C4C"/>
</svg>
