<svg width="88" height="95" viewBox="0 0 88 95" fill="none" xmlns="http://www.w3.org/2000/svg">
<path d="M5.75299 0.448593C2.92952 1.47798 0.841338 3.80145 0.253117 6.5955C0.0472393 7.6543 -0.0409939 19.6246 0.0178283 44.8887C0.106061 81.4761 0.106061 81.6526 0.723694 82.9761C1.57662 84.7996 2.69424 86.0642 4.34126 87.0348L5.69417 87.8289L24.5761 87.9171L43.4286 88.0054L41.7522 84.6819C39.4287 80.0938 38.9287 77.8291 38.9287 72.094C38.9287 68.7117 39.0757 67.0647 39.4581 65.6824C42.0757 56.0944 48.752 49.1239 58.1929 46.0652C60.2517 45.3887 61.3987 45.2417 64.7516 45.0946L68.8103 44.9476L68.7221 33.5949C68.6339 22.5363 68.6045 22.2128 67.9574 20.5658C66.928 18.0364 65.3398 16.1247 58.2812 8.94839C51.4872 2.0662 50.6343 1.38975 47.105 0.478004C44.7227 -0.139626 7.48824 -0.169037 5.75299 0.448593ZM31.2524 27.7127C31.6936 28.2127 32.0171 28.9773 32.0171 29.4479C32.0171 29.9185 31.6936 30.6832 31.2524 31.1832L30.4877 32.0949H22.0173C13.5763 32.0949 13.5175 32.0949 12.7234 31.4185C11.5764 30.4185 11.547 28.4773 12.694 27.5068L13.5175 26.8009H22.0173H30.4877L31.2524 27.7127ZM48.899 27.7127C49.3402 28.2127 49.6637 28.9773 49.6637 29.4479C49.6637 29.9185 49.3402 30.6832 48.899 31.1832C48.1638 32.0655 48.0755 32.0949 45.5462 32.0949C43.2521 32.0949 42.8404 32.0067 42.1345 31.4185C40.9875 30.4185 40.958 28.4773 42.1051 27.5068C42.8404 26.8892 43.2227 26.8009 45.5462 26.8009C48.0755 26.8009 48.1638 26.8303 48.899 27.7127ZM31.2524 42.4182C31.6936 42.9182 32.0171 43.6829 32.0171 44.1535C32.0171 44.624 31.6936 45.3887 31.2524 45.8887L30.4877 46.8005H22.0173C13.5763 46.8005 13.5175 46.8005 12.7234 46.124C11.5764 45.124 11.547 43.1829 12.694 42.2123L13.5175 41.5065H22.0173H30.4877L31.2524 42.4182ZM48.899 42.4182C49.3402 42.9182 49.6637 43.6829 49.6637 44.1535C49.6637 44.624 49.3402 45.3887 48.899 45.8887C48.1638 46.771 48.0755 46.8005 45.5462 46.8005C43.2521 46.8005 42.8404 46.7122 42.1345 46.124C40.9875 45.124 40.958 43.1829 42.1051 42.2123C42.8404 41.5947 43.2227 41.5065 45.5462 41.5065C48.0755 41.5065 48.1638 41.5359 48.899 42.4182ZM31.2524 57.1237C31.6936 57.6237 32.0171 58.3884 32.0171 58.859C32.0171 59.3296 31.6936 60.0943 31.2524 60.5942L30.4877 61.506H22.0173C13.5763 61.506 13.5175 61.506 12.7234 60.8295C11.5764 59.8296 11.547 57.8884 12.694 56.9179L13.5175 56.212H22.0173H30.4877L31.2524 57.1237Z" fill="#4C4C4C"/>
<path d="M62.8399 50.6241C60.3988 51.0358 58.1047 51.8299 55.693 53.0652C52.399 54.7711 48.5167 58.6533 46.8109 61.9768C44.6344 66.1531 43.8109 70.4766 44.3697 74.8588C45.7815 86.3291 55.8989 94.7701 67.3104 94.0643C76.8984 93.4466 84.7806 87.0644 87.3393 77.7999C88.1628 74.8294 88.2217 69.9472 87.4864 67.1237C85.6335 60.1533 80.7218 54.5946 74.1338 51.9182C70.8985 50.6241 66.1339 50.0653 62.8399 50.6241ZM72.4867 65.9473C73.3102 66.712 73.5749 67.7119 73.1926 68.6825C72.8103 69.7707 65.3398 78.6234 64.4575 79.094C63.5458 79.594 61.987 79.3587 61.3399 78.6234C60.5164 77.6823 57.6047 71.506 57.6047 70.6824C57.6047 69.6825 58.6929 68.3884 59.7517 68.1237C61.1046 67.7708 62.1634 68.5648 63.634 71.0648C63.8987 71.5354 64.2516 71.2118 66.2222 68.8295C67.4869 67.3002 68.8692 65.8296 69.3103 65.5355C70.2809 64.9179 71.5456 65.0649 72.4867 65.9473Z" fill="#4C4C4C"/>
</svg>
